<svg xmlns="http://www.w3.org/2000/svg" viewBox="0 0 500 500"><g id="freepik--background-complete--inject-74"><path d="M60.73,61.52l13.12-.28,6.66-.11c2.23,0,4.46,0,6.7-.05h.44v.45l.06,11.19v.5h-.5L74,73.15c-4.42,0-8.83-.11-13.24-.16h-.28v-.27c0-1.9.09-3.78.13-5.65Zm0,0,.14,5.66c0,1.86.11,3.7.13,5.53l-.27-.27c4.41,0,8.82-.16,13.24-.16l13.24-.07-.5.5.05-11.19.45.45c-2.19,0-4.36,0-6.55-.06l-6.58-.11Z" style="fill:#ebebeb"></path><path d="M75.5,47.41l13.12-.28L95.28,47c2.23,0,4.47,0,6.7-.05h.44v.45l.06,11.19v.5H102L88.74,59c-4.42,0-8.83-.11-13.24-.16h-.28V58.6c0-1.9.09-3.78.13-5.65Zm0,0,.14,5.66c0,1.86.11,3.7.13,5.53l-.27-.27c4.41,0,8.82-.16,13.24-.16L102,58.1l-.5.5,0-11.19.45.45c-2.18,0-4.36,0-6.55-.06l-6.58-.11Z" style="fill:#ebebeb"></path><path d="M101.18,191.18l13.12-.28,6.66-.11c2.23,0,4.47,0,6.7-.06h.44v.45l.06,11.19v.5h-.5l-13.24-.07c-4.42,0-8.83-.11-13.24-.16h-.28v-.27c0-1.9.09-3.79.13-5.66Zm0,0,.14,5.65c0,1.86.11,3.71.13,5.54l-.27-.28c4.41-.05,8.82-.15,13.24-.16l13.24-.06-.5.5,0-11.19.45.44c-2.19,0-4.36,0-6.55-.05l-6.58-.11Z" style="fill:#ebebeb"></path><path d="M116,177.07l13.12-.28,6.66-.11c2.23-.05,4.47,0,6.7-.06h.44v.45l.06,11.19v.5h-.5l-13.24-.07c-4.42,0-8.83-.11-13.24-.16h-.28v-.27c0-1.9.09-3.79.14-5.66Zm0,0,.14,5.65c0,1.86.11,3.71.13,5.54L116,188c4.41,0,8.82-.15,13.24-.16l13.24-.06-.5.5,0-11.19.45.44c-2.18,0-4.36,0-6.55,0l-6.58-.11Z" style="fill:#ebebeb"></path><path d="M46,47.41l13.13-.28L65.74,47C68,47,70.2,47,72.43,47h.45v.45l.05,11.19v.5h-.51L59.19,59c-4.41,0-8.82-.11-13.24-.16h-.27V58.6c0-1.9.09-3.78.13-5.65Zm0,0,.15,5.66c0,1.86.11,3.7.13,5.53L46,58.33c4.42,0,8.83-.16,13.24-.16l13.24-.07-.5.5L72,47.41l.44.45c-2.18,0-4.35,0-6.54-.06l-6.58-.11Z" style="fill:#ebebeb"></path><path d="M439.27,290.44l-13.12.27-6.66.12c-2.23,0-4.46,0-6.7.05h-.44v-.45l-.06-11.19v-.51h.5l13.24.06c4.42,0,8.83.11,13.24.16h.28v.27c0,1.89-.09,3.78-.13,5.65Zm0,0-.14-5.66c0-1.86-.11-3.7-.13-5.53l.27.27c-4.41.05-8.82.16-13.24.16l-13.24.07.5-.5-.05,11.19-.45-.45c2.19,0,4.36,0,6.55.06l6.58.11Z" style="fill:#ebebeb"></path><path d="M454.05,304.55l-13.13.27-6.66.12c-2.23,0-4.46,0-6.69.05h-.45v-.44l-.05-11.19v-.51h.51l13.24.06c4.41,0,8.82.11,13.24.16h.27v.27c0,1.89-.09,3.78-.13,5.65Zm0,0-.15-5.66c0-1.86-.11-3.7-.13-5.53l.28.27c-4.42.05-8.83.16-13.24.16l-13.24.07.5-.5L428,304.55l-.44-.45c2.18,0,4.35,0,6.54.06l6.58.11Z" style="fill:#ebebeb"></path><path d="M87.43,304.55l-13.12.27-6.66.12c-2.23,0-4.47,0-6.7.05h-.44v-.44l-.06-11.19v-.51H61l13.24.06c4.42,0,8.83.11,13.24.16h.28v.27c0,1.89-.09,3.78-.14,5.65Zm0,0-.14-5.66c0-1.86-.11-3.7-.13-5.53l.27.27c-4.41.05-8.82.16-13.24.16L61,293.86l.5-.5-.05,11.19L61,304.1c2.18,0,4.36,0,6.55.06l6.58.11Z" style="fill:#ebebeb"></path><path d="M412.68,47.41l13.13-.28,6.66-.11c2.22,0,4.46,0,6.69-.05h.45v.45l.05,11.19v.5h-.5L425.92,59c-4.41,0-8.83-.11-13.24-.16h-.27V58.6c0-1.9.08-3.78.13-5.65Zm0,0,.14,5.66c.05,1.86.12,3.7.13,5.53l-.27-.27c4.41,0,8.83-.16,13.24-.16l13.24-.07-.5.5.06-11.19.44.45c-2.18,0-4.36,0-6.54-.06L426,47.69Z" style="fill:#ebebeb"></path><rect x="55.33" y="142.49" width="50.98" height="50.98" style="fill:#fff"></rect><path d="M52.68,139.84v56.29H109V139.84Zm53.63,53.64h-51v-51h51Z" style="fill:#dbdbdb"></path><rect x="73.96" y="154.92" width="17.62" height="39.74" transform="translate(257.57 92.02) rotate(90)" style="fill:#ebebeb"></rect><rect x="70.64" y="157.81" width="20.36" height="20.36" transform="translate(248.81 87.16) rotate(90)" style="fill:#c7c7c7"></rect><rect x="108.97" y="139.84" width="2.17" height="56.29" style="fill:#c7c7c7"></rect><rect x="96.31" y="214.89" width="50.98" height="50.98" style="fill:#fff"></rect><rect x="105.08" y="223.04" width="13.31" height="38.45" style="fill:#c7c7c7"></rect><path d="M93.66,212.23v56.29H150V212.23Zm53.64,53.64h-51v-51h51Z" style="fill:#dbdbdb"></path><rect x="111.63" y="230.2" width="20.36" height="20.36" style="fill:#ebebeb"></rect><rect x="149.95" y="212.23" width="2.17" height="56.29" style="fill:#c7c7c7"></rect><circle cx="79.69" cy="78.43" r="19.41" style="fill:#ebebeb;opacity:0.19"></circle><path d="M94.08,81.62A14.39,14.39,0,1,1,79.69,67.23,14.39,14.39,0,0,1,94.08,81.62Z" style="fill:#ebebeb;opacity:0.19"></path><polygon points="100.88 81.62 87.47 104.47 71.91 104.47 58.5 81.62 100.88 81.62" style="fill:#ebebeb"></polygon><polygon points="91.11 112.16 68.27 112.16 71.91 104.47 87.47 104.47 91.11 112.16" style="fill:#ebebeb"></polygon><polygon points="89.89 100.34 87.47 104.47 71.9 104.47 70.07 101.35 89.89 100.34" style="fill:#c7c7c7"></polygon><circle cx="420.31" cy="78.43" r="19.41" style="fill:#ebebeb;opacity:0.19"></circle><path d="M434.7,81.62a14.39,14.39,0,1,1-14.39-14.39A14.39,14.39,0,0,1,434.7,81.62Z" style="fill:#ebebeb;opacity:0.19"></path><polygon points="441.5 81.62 428.09 104.47 412.53 104.47 399.13 81.62 441.5 81.62" style="fill:#ebebeb"></polygon><polygon points="431.74 112.16 408.9 112.16 412.53 104.47 428.09 104.47 431.74 112.16" style="fill:#ebebeb"></polygon><polygon points="430.52 100.34 428.1 104.47 412.53 104.47 410.7 101.35 430.52 100.34" style="fill:#c7c7c7"></polygon></g><g id="freepik--Plant--inject-74"><path d="M126.53,349c-3.55-3.49-8.15-7.7-13.59-6.19-5.11,1.41-7.07,7-8,11.65-1.19,6-2.1,12.05-3.06,18.08s-1.86,12.2-2.74,18.31q-.73,5.16-1.46,10.34L97,406.4c-.24,1.69-.52,3.38-.61,5.09,0,.54.82.62.94.1.66-2.87.93-5.86,1.35-8.78s.85-5.87,1.28-8.81c.85-5.83,1.74-11.66,2.61-17.48s1.79-11.66,2.72-17.48c.79-4.94,1.16-11.07,5.54-14.33A8.48,8.48,0,0,1,119,344c2.88,1.1,5.18,3.16,7.43,5.2A.07.07,0,0,0,126.53,349Z" style="fill:#263238"></path><path d="M121.67,345.48s-7.27-2.62-10.86,2.69.7,18.8,33.8,26.41a93.56,93.56,0,0,0-8-29.92C129.55,329.19,116.91,335.05,121.67,345.48Z" style="fill:#03A9F4"></path><path d="M142.71,372.37a25.52,25.52,0,0,0-1.67-2.68q-.82-1.29-1.68-2.55c-.42-.64-.86-1.27-1.29-1.9,0-.15,0-.31.06-.47s.07-.57.11-.86q.12-.93.27-1.86c.09-.62.19-1.23.31-1.84a9.68,9.68,0,0,1,.43-1.95c0-.1-.13-.15-.14,0a7.17,7.17,0,0,1-.3,1.1c-.08.28-.15.56-.22.84-.16.62-.32,1.25-.46,1.89s-.24,1.17-.34,1.75c0,.29-.09.57-.13.85-.59-.84-1.19-1.67-1.81-2.49-1.75-2.32-3.61-4.54-5.54-6.72,0,0,0,0,0-.06.17-3.47.09-6.92.86-10.34,0-.09-.12-.14-.14-.05a36,36,0,0,0-1.24,9.9c-.68-.77-1.38-1.54-2.09-2.3-1.61-1.73-3.25-3.44-4.93-5.11a.07.07,0,0,0-.11.1c2.79,3,5.44,6.13,8,9.32a55.52,55.52,0,0,0-6.05.22c-2.25.17-4.48.45-6.7.76a.08.08,0,0,0,0,.15,62.26,62.26,0,0,1,6.69-.6c2.16-.09,4.3,0,6.46,0q2.09,2.6,4.13,5.23H135c-.51,0-1,0-1.53,0-1,0-2,.09-3,.17a46.42,46.42,0,0,0-6.11.92.08.08,0,0,0,0,.15c2-.23,4.07-.43,6.11-.5,1,0,1.95,0,2.93,0,.51,0,1,0,1.52,0a1.93,1.93,0,0,0,.84-.07q1.33,1.73,2.66,3.47c.7.92,1.4,1.85,2.08,2.8s1.32,2,2.1,2.91C142.64,372.52,142.74,372.44,142.71,372.37Z" style="fill:#263238"></path><path d="M124.83,353a23.2,23.2,0,0,0-3.54-.18c-1.18,0-2.36,0-3.54.08a.08.08,0,1,0,0,.15c1.2-.09,2.39-.11,3.59-.09s2.32.13,3.48.1A0,0,0,0,0,124.83,353Z" style="fill:#263238"></path><path d="M135.22,355.66c.14-1.13.28-2.26.52-3.37a.08.08,0,1,0-.15,0c-.17,1.12-.38,2.22-.55,3.34-.08.55-.16,1.11-.22,1.67a7,7,0,0,0-.14,1.58.1.1,0,0,0,.19,0,9.21,9.21,0,0,0,.18-1.57C135.1,356.74,135.16,356.2,135.22,355.66Z" style="fill:#263238"></path><path d="M133,343.14c-.29,1.1-.57,2.21-.78,3.33-.1.57-.19,1.14-.26,1.71a6.34,6.34,0,0,0-.11,1.68s.07,0,.08,0a9.42,9.42,0,0,0,.26-1.59c.08-.55.16-1.1.26-1.65.2-1.15.4-2.29.69-3.43A.07.07,0,0,0,133,343.14Z" style="fill:#263238"></path><path d="M89.94,410.27q-.27-3.13-.6-6.25-.66-6.18-1.49-12.35c-.55-4.09-1.08-8.2-1.74-12.28a30.45,30.45,0,0,0-1.26-5.58,5.32,5.32,0,0,0-3.09-3.48c-3.89-1.35-6.52,2.69-8.09,5.55,0,.09.07.15.13.07.94-1.35,3.54-5.15,6.49-5,2,.12,3.58,1.52,4.54,6.48,2.37,12.35,4.52,37.41,4.77,39.05.13.87.74.83.75-.1C90.36,414.36,90.12,412.31,89.94,410.27Z" style="fill:#263238"></path><path d="M74.72,374.34s3.4-12-4.12-6c-12.53,10-13,31.77-13,31.77s22.26-12.94,25-21.46C86.78,365.93,74.72,374.34,74.72,374.34Z" style="fill:#03A9F4"></path><path d="M78.93,380.24c-1.75.36-3.52.59-5.28.84l-2.51.35c-.56.08-1.13.14-1.7.21,1.66-2.29,3.33-4.56,4.92-6.9.06-.09-.08-.18-.15-.1a49.31,49.31,0,0,0-3.72,4.29l-1-2.79c-.38-1.08-.78-2.15-1.06-3.26,0-.09-.16-.05-.14.05.3,1.1.52,2.22.81,3.33s.61,2.12,1,3.15c-.81,1.06-1.6,2.15-2.36,3.24-.38-1.08-.86-2.13-1.19-3.24a.07.07,0,0,0-.14,0c.4,1.22.61,2.49,1,3.71-.51.75-1,1.49-1.51,2.25-.89,1.39-1.74,2.8-2.57,4.23a.34.34,0,0,0-.2.33c-1.4,2.44-2.74,4.91-4.06,7.4,0,.08.08.15.13.07,1.32-2.46,2.79-4.86,4.32-7.21h0a3.26,3.26,0,0,1,.73-.14l.76-.17c.58-.12,1.15-.27,1.72-.42,1.13-.28,2.25-.54,3.4-.74.09,0,.05-.16,0-.14-1.35.25-2.7.41-4.06.56-.64.08-1.28.16-1.92.26l-.1,0q1.22-1.83,2.44-3.62c.81-1.17,1.64-2.33,2.47-3.49.78-.11,1.54-.31,2.31-.46l2.58-.5c1.73-.34,3.44-.73,5.17-1C79.07,380.37,79,380.22,78.93,380.24Z" style="fill:#263238"></path><path d="M65.55,381.43l-.3-1a19.71,19.71,0,0,1-.51-2c0-.1-.16,0-.14,0,.14.68.3,1.35.46,2a12.7,12.7,0,0,0,.58,2,.13.13,0,0,0,.25-.08C65.8,382.11,65.66,381.77,65.55,381.43Z" style="fill:#263238"></path><path d="M81.21,377.46c-1,.15-2,.22-3.06.31s-2,.24-3.06.39c-.06,0-.06.09,0,.09,1-.07,2-.15,3.06-.28s2-.29,3.06-.36C81.31,377.6,81.3,377.45,81.21,377.46Z" style="fill:#263238"></path><path d="M106.33,395.05c-.4-8.85-1-17.68-1.85-26.49-.44-4.39-.94-8.78-1.55-13.15a94.8,94.8,0,0,0-2.54-12.72,24.61,24.61,0,0,0-4.23-9A9.61,9.61,0,0,0,87.6,330c-3.87.47-7,2.91-9.69,5.57-3,3-5.79,6.22-8.6,9.4-.71.8-1.41,1.61-2.11,2.43-.06.07,0,.17.11.1,2.74-3.15,5.59-6.21,8.57-9.13,2.75-2.7,5.59-5.66,9.4-6.77a9.67,9.67,0,0,1,5.46-.13,8.69,8.69,0,0,1,3.73,2.36A19.45,19.45,0,0,1,98.68,342c2.38,8.14,3.23,16.67,4.12,25.07s1.5,17.09,1.93,25.66.77,17.24,1.6,25.83c.1,1.06.24,2.11.37,3.17.09.71,1.2.71,1.14,0C107.14,412.83,106.73,403.94,106.33,395.05Z" style="fill:#263238"></path><path d="M77.43,336.51s5-9.35-.92-12.35-26,19.31-31.79,51.93c0,0,32.27-14.28,43.23-28.51S86.49,330.22,77.43,336.51Z" style="fill:#03A9F4"></path><path d="M82.17,344.12c-3.63,0-7.24-.27-10.87-.25.68-.78,1.35-1.56,2-2.33a34.3,34.3,0,0,0,2.84-3.3c0-.07-.06-.18-.13-.12a26.44,26.44,0,0,0-2.75,2.75c-.91,1-1.81,1.93-2.71,2.91-1.39,1.5-2.75,3-4.1,4.55,0-.15,0-.3,0-.44,0-.63,0-1.27,0-1.91,0-1.23,0-2.46,0-3.69,0-2.49,0-5,.2-7.49,0-.09-.15-.09-.15,0-.18,2.5-.44,5-.56,7.5-.06,1.23-.09,2.46-.1,3.69,0,.63,0,1.27,0,1.9,0,.35,0,.72,0,1.07l-.64.71c-2.9,3.31-5.65,6.73-8.33,10.22a5.44,5.44,0,0,0,0-.58c0-.39-.08-.77-.12-1.15-.1-.84-.21-1.66-.34-2.49s-.24-1.56-.37-2.33-.36-1.76-.42-2.64a.08.08,0,1,0-.15,0,21.65,21.65,0,0,1,.3,2.66c.08.8.15,1.6.23,2.39s.14,1.6.22,2.4l.12,1.15c0,.19,0,.39.07.58a1,1,0,0,0,.15.45l-1.38,1.81c-1.83,2.42-3.62,4.87-5.42,7.31-.06.08,0,.18.11.11,1.7-2.22,3.45-4.4,5.22-6.56,1.33.06,2.69,0,4-.06s2.8,0,4.2,0a.07.07,0,0,0,0-.15c-1.4,0-2.8.05-4.2.05s-2.58-.06-3.85,0Q57.61,360,60,357.18l1.73-2.05a8,8,0,0,0,1.62.05h1.91c1.19,0,2.38,0,3.58-.05,2.46,0,4.92-.12,7.39-.13.09,0,.09-.14,0-.15-2.46,0-4.93-.13-7.4-.19-1.19,0-2.38-.07-3.58-.09l-1.91,0c-.36,0-.73,0-1.1,0,1.36-1.6,2.71-3.21,4.07-4.82a.14.14,0,0,0,.07-.08c1.33-1.56,2.65-3.12,4-4.67l.55-.63c3.76.11,7.51-.13,11.27-.06A.07.07,0,1,0,82.17,344.12Z" style="fill:#263238"></path><path d="M80.32,350.53h-.88a.07.07,0,0,0,0,.14h.88C80.42,350.68,80.41,350.53,80.32,350.53Z" style="fill:#263238"></path><path d="M78.36,350.54c-1.16,0-2.32,0-3.48-.07l-1.75-.06a7.31,7.31,0,0,0-1.62,0,.06.06,0,0,0,0,.11,6.37,6.37,0,0,0,1.63.12l1.74,0c1.16,0,2.32,0,3.49,0C78.46,350.69,78.46,350.55,78.36,350.54Z" style="fill:#263238"></path><path d="M68.22,361.44a47.62,47.62,0,0,0-7.14-.65s0,0,0,0c2.37.23,4.75.36,7.1.74C68.27,361.6,68.31,361.45,68.22,361.44Z" style="fill:#263238"></path><path d="M58.51,351.05c0-.21,0-.41-.07-.62-.06-.47-.14-.93-.21-1.4-.14-.88-.29-1.77-.46-2.65,0-.08-.16-.06-.15,0,.11.92.21,1.83.3,2.74,0,.45.07.9.11,1.35a3.89,3.89,0,0,0,.18,1.28c.07.14.28.08.32,0A1.69,1.69,0,0,0,58.51,351.05Z" style="fill:#263238"></path><path d="M106,324.5c-1.15-2.15-2.62-5-5.51-4.81-2.38.15-3.45,2.58-4,4.59-1.57,6.21-1.68,12.76-2,19.13-.65,13.45-1.23,26.92-1.31,40.39,0,3.73,0,7.47,0,11.2s0,7.64.27,11.44a.28.28,0,0,0,.56,0c0-3.25-.1-6.51-.11-9.77s0-6.36.06-9.54q.17-9.64.52-19.3c.24-6.4.52-12.79.79-19.19.13-3.19.27-6.39.41-9.58s.28-6.2.63-9.28c.2-1.72.45-3.45.81-5.14a7.2,7.2,0,0,1,1.49-3.45,3.26,3.26,0,0,1,4.21-.31,8.84,8.84,0,0,1,3,3.72C105.93,324.67,106.06,324.59,106,324.5Z" style="fill:#263238"></path><path d="M105.23,323.48s-2.37-8.37,2.87-4.19c8.73,7,9,22.13,9,22.13s-15.51-9-17.44-14.95C96.82,317.62,105.23,323.48,105.23,323.48Z" style="fill:#03A9F4"></path><path d="M113.87,335.2c-.14-.23-.29-.45-.44-.68a4.33,4.33,0,0,0,0-.72v-1.08c0-.71,0-1.41.08-2.12,0-.09-.14-.09-.15,0,0,.69-.06,1.38-.08,2.08,0,.34,0,.69,0,1,0,.13,0,.29,0,.44-.61-.94-1.23-1.88-1.88-2.8l-.57-.79a15.55,15.55,0,0,1-.05-2.73c0-1,0-2,.06-2.92,0-.1-.15-.09-.15,0,0,1-.08,2-.13,3a19.41,19.41,0,0,0-.06,2.16c-1.5-2-3.09-4-4.69-5.95-.06-.06-.17,0-.12.09,1,1.26,1.95,2.56,2.89,3.87-1.83-.43-3.68-.67-5.54-.94-.09,0-.13.13,0,.14,2,.3,3.89.79,5.82,1.22h0c.74,1.05,1.48,2.1,2.21,3.16.3.42.59.86.88,1.29h-.08l-.61-.08q-.65-.07-1.29-.12c-.89-.07-1.79-.12-2.68-.17a.08.08,0,0,0,0,.15c.88,0,1.76.09,2.64.18l1.38.17.61.07.18,0,1.49,2.2c.87,1.29,1.65,2.68,2.59,3.93a.07.07,0,0,0,.12-.08A39.54,39.54,0,0,0,113.87,335.2Z" style="fill:#263238"></path><path d="M110,325.75c0-.33,0-.65,0-1a14,14,0,0,1,.08-2c0-.11-.15-.13-.15,0,0,.68-.07,1.36-.11,2,0,.34,0,.68,0,1v.47a1.6,1.6,0,0,0,0,.49.07.07,0,0,0,.13,0,1.09,1.09,0,0,0,0-.44Z" style="fill:#263238"></path><path d="M108.09,329.21c-.57-.09-1.16-.12-1.75-.17s-1.28-.11-1.91-.2a.08.08,0,1,0,0,.15c1.23.08,2.44.3,3.67.34A.06.06,0,0,0,108.09,329.21Z" style="fill:#263238"></path><path d="M113,329.27c0,.06,0,.24,0,.32v.85c0,.2,0,.39,0,.59a1.25,1.25,0,0,0,0,.51,0,0,0,0,0,.06,0,.5.5,0,0,0,0-.24V331c0-.2,0-.39,0-.59v-.85a.9.9,0,0,1,0-.33C113.19,329.13,112.87,329.12,113,329.27Z" style="fill:#263238"></path><path d="M106.37,369.17c-3.26-2.44-6.19-6-10.58-6.13-3.62-.15-6.16,2.58-7.61,5.61a31.36,31.36,0,0,0-1.77,5c-.66,2.29-1.27,4.59-1.85,6.9q-1.71,6.82-2.9,13.76c-.44,2.58-.86,5.16-1.18,7.76a64.09,64.09,0,0,0-.76,7.93.41.41,0,0,0,.81.09c.44-2.17.62-4.4.94-6.6s.66-4.4,1-6.6q1.13-6.58,2.6-13.12c.93-4.1,1.85-8.26,3.18-12.26,1-2.87,2.47-6.21,5.56-7.24,4.71-1.57,9,2.42,12.43,5C106.34,369.34,106.45,369.23,106.37,369.17Z" style="fill:#263238"></path><path d="M103,366.83s-3-8.58,1.34-10.27c6.52-2.52,23.57,16.69,20.23,46.13,0,0-13.18-7.26-22.91-15.43s-12.22-18.83-7.93-21.59S103,366.83,103,366.83Z" style="fill:#03A9F4"></path><path d="M122.6,396.38a23.52,23.52,0,0,0-1.58-3c-.56-1-1.12-2-1.7-3-1.14-1.94-2.26-3.88-3.42-5.8l-.57-.93c0-.12,0-.23.07-.35.06-.28.13-.57.19-.85.15-.64.26-1.28.38-1.93.24-1.26.45-2.53.79-3.77,0-.09-.12-.12-.14,0-.27,1.26-.67,2.5-1,3.73-.18.61-.38,1.22-.54,1.83-.06.21-.11.42-.16.63-1.41-2.3-2.83-4.58-4.37-6.79a3,3,0,0,0,.15-.95l.15-1.29c.12-1,.23-1.93.37-2.9a56.49,56.49,0,0,1,1-5.64c0-.09-.12-.12-.14,0-.47,1.85-1,3.7-1.34,5.58-.17.92-.33,1.85-.45,2.78-.07.46-.12.93-.16,1.4,0,.13,0,.28-.06.42-.47-.67-.94-1.34-1.44-2-1.5-2-3.06-3.91-4.64-5.84-.06-.07-.18,0-.12.09a105,105,0,0,1,7.41,10.82l1.28,2.08-.42-.05c-.55-.07-1.11-.1-1.66-.15-1.11-.11-2.22-.21-3.33-.29-2.22-.18-4.45-.32-6.66-.55-.1,0-.12.13,0,.14,2.25.26,4.48.62,6.72.94,1.1.16,2.2.3,3.3.44a12.36,12.36,0,0,0,2.54.26l2.62,4.25c-.2,0-.4,0-.59,0-.37,0-.74,0-1.11,0h-2.07c-1.43,0-2.85,0-4.28,0-.1,0-.09.15,0,.15,1.45,0,2.89.09,4.34.17l2.06.12,1,.08a2.09,2.09,0,0,0,.9,0l2.23,3.62c.68,1.11,1.37,2.22,2.07,3.32a26.52,26.52,0,0,0,2.24,3.36C122.52,396.52,122.64,396.47,122.6,396.38Z" style="fill:#263238"></path><path d="M116.32,372.59a20.77,20.77,0,0,1-.58,2.8c-.25.95-.52,1.9-.83,2.83a.09.09,0,1,0,.17.06c.3-.93.56-1.87.79-2.81s.37-1.91.6-2.86C116.49,372.52,116.34,372.49,116.32,372.59Z" style="fill:#263238"></path><path d="M106.64,378.34a1.07,1.07,0,0,0-.72-.27l-1.24-.17-2.32-.28c-1.6-.19-3.21-.34-4.82-.55-.09,0-.12.14,0,.15,1.51.18,3,.41,4.53.61l2.23.29,1.07.12a3.6,3.6,0,0,1,1.22.21C106.64,378.49,106.69,378.39,106.64,378.34Z" style="fill:#263238"></path><path d="M116.3,391.28c-.76-.06-1.52-.08-2.28-.11l-1.15,0-.55,0a4.23,4.23,0,0,1-.72,0c-.11,0-.12.16,0,.15a2.58,2.58,0,0,1,.68,0l.59,0,1.15.07c.76,0,1.53.09,2.29.1C116.39,391.45,116.39,391.29,116.3,391.28Z" style="fill:#263238"></path><path d="M121,388c.09-.43.17-.86.25-1.29.15-.85.31-1.7.46-2.55a.07.07,0,0,0-.14,0c-.19.83-.38,1.66-.56,2.48-.1.42-.19.83-.27,1.25l-.12.57a1.57,1.57,0,0,0-.07.61c0,.07.11.12.16.05A3.09,3.09,0,0,0,121,388Z" style="fill:#263238"></path><polygon points="76.32 406.72 77.24 417.16 80.36 452.39 107.95 452.39 111.85 417.16 113 406.72 76.32 406.72" style="fill:#37474f"></polygon><polygon points="76.32 406.72 77.24 417.16 111.85 417.16 113 406.72 76.32 406.72" style="fill:#263238"></polygon><rect x="73.59" y="403.87" width="42.14" height="8.47" transform="translate(189.32 816.21) rotate(180)" style="fill:#37474f"></rect></g><g id="freepik--Floor--inject-74"><polygon points="42.22 452.39 94.16 452.15 146.11 452.06 250 451.89 353.89 452.06 405.84 452.15 457.78 452.39 405.84 452.63 353.89 452.72 250 452.89 146.11 452.72 94.16 452.63 42.22 452.39" style="fill:#263238"></polygon></g><g id="freepik--Device--inject-74"><rect x="47.47" y="140.02" width="374.31" height="250.43" rx="12.89" transform="translate(499.86 30.61) rotate(90)" style="fill:#37474f"></rect><rect x="120.26" y="104.28" width="229.01" height="322.14" style="fill:#fff"></rect><rect x="232.68" y="66.03" width="3.89" height="54.5" rx="1.25" transform="translate(327.9 -141.34) rotate(90)" style="fill:#263238"></rect><circle cx="234.62" cy="439.08" r="7.05" style="fill:#263238"></circle><rect x="120.26" y="104.28" width="229.01" height="322.14" style="fill:#fff"></rect><rect x="120.26" y="104.28" width="229.01" height="7.87" style="fill:#263238"></rect><path d="M127.3,108.21a1.65,1.65,0,1,1-1.65-1.65A1.65,1.65,0,0,1,127.3,108.21Z" style="fill:#c7c7c7"></path><path d="M134,108.21a1.65,1.65,0,1,1-1.65-1.65A1.65,1.65,0,0,1,134,108.21Z" style="fill:#fff"></path><path d="M140.78,108.21a1.65,1.65,0,1,1-1.65-1.65A1.65,1.65,0,0,1,140.78,108.21Z" style="fill:#03A9F4"></path><rect x="140.71" y="151.11" width="188.12" height="188.12" style="fill:#03A9F4;opacity:0.1"></rect><polygon points="158.67 250.5 155.7 247.72 158.67 244.94 159.14 245.44 156.71 247.72 159.14 250 158.67 250.5" style="fill:#263238"></polygon><path d="M158.08,252.68a5,5,0,1,1,5-5A5,5,0,0,1,158.08,252.68Zm0-9a4,4,0,1,0,4,4A4,4,0,0,0,158.08,243.69Z" style="fill:#263238"></path><polygon points="310.87 250.5 310.39 250 312.82 247.72 310.39 245.44 310.87 244.94 313.84 247.72 310.87 250.5" style="fill:#263238"></polygon><path d="M311.46,252.68a5,5,0,1,1,5-5A5,5,0,0,1,311.46,252.68Zm0-9a4,4,0,1,0,4,4A4,4,0,0,0,311.46,243.69Z" style="fill:#263238"></path><rect x="178.37" y="212.14" width="112.8" height="111.37" style="fill:#03A9F4"></rect><rect x="273.04" y="239.19" width="7.7" height="3.25" transform="translate(553.78 481.62) rotate(180)" style="opacity:0.1"></rect><rect x="277.34" y="235.08" width="7.7" height="3.25" transform="translate(562.37 473.42) rotate(180)" style="opacity:0.1"></rect><rect x="268.75" y="235.08" width="7.7" height="3.25" transform="translate(545.19 473.42) rotate(180)" style="opacity:0.1"></rect><rect x="184.65" y="235.08" width="7.7" height="3.25" transform="translate(377 473.42) rotate(180)" style="opacity:0.1"></rect><rect x="184.65" y="305.2" width="7.7" height="3.25" transform="translate(377 613.65) rotate(180)" style="opacity:0.1"></rect><rect x="180.36" y="301.1" width="7.7" height="3.25" transform="translate(368.41 605.45) rotate(180)" style="opacity:0.1"></rect><rect x="277.34" y="305.2" width="7.7" height="3.25" transform="translate(562.37 613.64) rotate(180)" style="opacity:0.1"></rect><rect x="236.55" y="267.97" width="7.7" height="3.25" style="opacity:0.1"></rect><rect x="232.25" y="272.08" width="7.7" height="3.25" style="opacity:0.1"></rect><rect x="176.3" y="320.22" width="116.94" height="3.28" style="fill:#03A9F4"></rect><rect x="176.3" y="320.22" width="116.94" height="3.28" style="opacity:0.1"></rect><polygon points="290.22 165.26 179.32 165.26 173.63 212.47 295.91 212.47 290.22 165.26" style="fill:#03A9F4"></polygon><polygon points="290.22 165.26 179.32 165.26 173.63 212.47 295.91 212.47 290.22 165.26" style="opacity:0.6000000000000001"></polygon><g style="opacity:0.1"><polygon points="174.34 206.57 189.45 206.45 204.56 206.41 234.78 206.32 265 206.41 280.12 206.45 295.23 206.57 280.12 206.7 265 206.74 234.78 206.82 204.56 206.74 189.45 206.69 174.34 206.57"></polygon><polygon points="175.05 200.68 189.98 200.56 204.91 200.52 234.77 200.43 264.63 200.52 279.56 200.56 294.49 200.68 279.56 200.8 264.63 200.85 234.77 200.93 204.91 200.85 189.98 200.8 175.05 200.68"></polygon><polygon points="175.76 194.79 190.51 194.67 205.26 194.63 234.77 194.54 264.27 194.62 279.02 194.67 293.78 194.79 279.02 194.91 264.27 194.96 234.77 195.04 205.26 194.96 190.51 194.91 175.76 194.79"></polygon><polygon points="176.47 188.9 191.05 188.78 205.62 188.73 234.77 188.65 263.92 188.73 278.49 188.78 293.07 188.9 278.49 189.02 263.92 189.07 234.77 189.15 205.62 189.06 191.05 189.02 176.47 188.9"></polygon><polygon points="177.18 183.01 191.58 182.89 205.97 182.84 234.77 182.76 263.56 182.84 277.96 182.89 292.36 183.01 277.96 183.13 263.56 183.17 234.77 183.26 205.97 183.17 191.58 183.13 177.18 183.01"></polygon><polygon points="177.89 177.12 192.11 177 206.33 176.95 234.77 176.87 263.21 176.95 277.43 176.99 291.65 177.12 277.43 177.24 263.21 177.28 234.77 177.37 206.33 177.28 192.11 177.24 177.89 177.12"></polygon><polygon points="178.6 171.22 192.64 171.1 206.69 171.06 234.77 170.98 262.85 171.06 276.89 171.1 290.94 171.22 276.89 171.35 262.85 171.39 234.77 171.47 206.69 171.39 192.64 171.35 178.6 171.22"></polygon></g><rect x="222.86" y="262.54" width="23.81" height="54.23" style="fill:#263238"></rect><rect x="243.67" y="290.59" width="2.16" height="5.91" style="fill:#03A9F4"></rect><path d="M245.62,291.62a.88.88,0,1,1-.88-.89A.89.89,0,0,1,245.62,291.62Z" style="opacity:0.32"></path><rect x="225.95" y="265.58" width="7.23" height="7.15" style="fill:#c7c7c7"></rect><rect x="225.95" y="274.68" width="7.23" height="14.93" style="fill:#c7c7c7"></rect><rect x="225.95" y="291.57" width="7.23" height="18.35" style="fill:#c7c7c7"></rect><rect x="235.57" y="265.58" width="7.22" height="7.15" style="fill:#c7c7c7"></rect><rect x="235.57" y="274.68" width="7.22" height="14.93" style="fill:#c7c7c7"></rect><rect x="235.57" y="291.57" width="7.22" height="18.35" style="fill:#c7c7c7"></rect><rect x="210.3" y="319.85" width="48.94" height="3.61" style="fill:#dbdbdb"></rect><rect x="209.68" y="319.11" width="50.18" height="0.74" style="fill:#c7c7c7"></rect><rect x="213.57" y="315.5" width="42.4" height="3.61" style="fill:#dbdbdb"></rect><rect x="212.95" y="314.76" width="43.64" height="0.74" style="fill:#c7c7c7"></rect><path d="M224.14,187.1a10.63,10.63,0,0,1,10.63-10.63h0A10.63,10.63,0,0,1,245.4,187.1Z" style="fill:#03A9F4"></path><path d="M242.74,201.64h-16V187a8,8,0,0,1,8-8h0a8,8,0,0,1,8,8Z" style="fill:#263238"></path><path d="M241.45,187v13.37H228.09V187a6.68,6.68,0,0,1,6.68-6.68h0A6.68,6.68,0,0,1,241.45,187Z" style="fill:#c7c7c7"></path><g style="opacity:0.30000000000000004"><path d="M240.62,183.75l-12.53,12.53V190l9.18-9.17a6.52,6.52,0,0,1,2.22,1.47A6.64,6.64,0,0,1,240.62,183.75Z" style="fill:#fff"></path><polygon points="241.44 194.09 241.44 200.34 235.19 200.34 241.44 194.09" style="fill:#fff"></polygon><polygon points="241.44 191.32 241.44 192.65 233.75 200.34 232.42 200.34 241.44 191.32" style="fill:#fff"></polygon><path d="M236.24,180.46l-8.15,8.15V187a6.35,6.35,0,0,1,.09-1.07l5.53-5.53a7.45,7.45,0,0,1,1.06-.08A6.43,6.43,0,0,1,236.24,180.46Z" style="fill:#fff"></path></g><rect x="228.09" y="190.56" width="13.35" height="1.3" style="fill:#263238"></rect><rect x="224.74" y="189.67" width="20.05" height="1.3" transform="translate(425.09 -44.45) rotate(90)" style="fill:#263238"></rect><rect x="225.09" y="201.64" width="19.37" height="3.36" style="fill:#03A9F4"></rect><rect x="225.09" y="201.64" width="19.37" height="3.36" style="opacity:0.1"></rect><path d="M258.31,187.1a10.63,10.63,0,0,1,10.63-10.63h0a10.63,10.63,0,0,1,10.63,10.63Z" style="fill:#03A9F4"></path><path d="M276.91,201.64H261V187a8,8,0,0,1,8-8h0a8,8,0,0,1,8,8Z" style="fill:#263238"></path><path d="M275.62,187v13.37H262.26V187a6.68,6.68,0,0,1,6.68-6.68h0A6.68,6.68,0,0,1,275.62,187Z" style="fill:#c7c7c7"></path><g style="opacity:0.30000000000000004"><path d="M274.79,183.75l-12.53,12.53V190l9.18-9.17a6.52,6.52,0,0,1,2.22,1.47A6.64,6.64,0,0,1,274.79,183.75Z" style="fill:#fff"></path><polygon points="275.61 194.09 275.61 200.34 269.37 200.34 275.61 194.09" style="fill:#fff"></polygon><polygon points="275.61 191.32 275.61 192.65 267.93 200.34 266.59 200.34 275.61 191.32" style="fill:#fff"></polygon><path d="M270.41,180.46l-8.15,8.15V187a6.35,6.35,0,0,1,.09-1.07l5.53-5.53a7.45,7.45,0,0,1,1.06-.08A6.43,6.43,0,0,1,270.41,180.46Z" style="fill:#fff"></path></g><rect x="262.26" y="190.56" width="13.35" height="1.3" style="fill:#263238"></rect><rect x="258.91" y="189.67" width="20.05" height="1.3" transform="translate(459.26 -78.62) rotate(90)" style="fill:#263238"></rect><rect x="259.26" y="201.64" width="19.37" height="3.36" style="fill:#03A9F4"></rect><rect x="259.26" y="201.64" width="19.37" height="3.36" style="opacity:0.1"></rect><path d="M189.49,187.1a10.63,10.63,0,0,1,10.64-10.63h0a10.63,10.63,0,0,1,10.63,10.63Z" style="fill:#03A9F4"></path><path d="M208.1,201.64H192.15V187a8,8,0,0,1,8-8h0a8,8,0,0,1,8,8Z" style="fill:#263238"></path><path d="M206.8,187v13.37H193.45V187a6.68,6.68,0,0,1,6.68-6.68h0A6.68,6.68,0,0,1,206.8,187Z" style="fill:#c7c7c7"></path><g style="opacity:0.30000000000000004"><path d="M206,183.75l-12.52,12.53V190l9.17-9.17a6.47,6.47,0,0,1,2.23,1.47A6.6,6.6,0,0,1,206,183.75Z" style="fill:#fff"></path><polygon points="206.8 194.09 206.8 200.34 200.55 200.34 206.8 194.09" style="fill:#fff"></polygon><polygon points="206.8 191.32 206.8 192.65 199.11 200.34 197.78 200.34 206.8 191.32" style="fill:#fff"></polygon><path d="M201.6,180.46l-8.15,8.15V187a6.35,6.35,0,0,1,.09-1.07l5.52-5.53a7.45,7.45,0,0,1,1.06-.08A6.52,6.52,0,0,1,201.6,180.46Z" style="fill:#fff"></path></g><rect x="193.45" y="190.56" width="13.35" height="1.3" style="fill:#263238"></rect><rect x="190.1" y="189.67" width="20.05" height="1.3" transform="translate(390.44 -9.81) rotate(90)" style="fill:#263238"></rect><rect x="190.44" y="201.64" width="19.37" height="3.36" style="fill:#03A9F4"></rect><rect x="190.44" y="201.64" width="19.37" height="3.36" style="opacity:0.1"></rect><path d="M210.55,250.41H189.7V228.9a10.43,10.43,0,0,1,10.43-10.43h0a10.42,10.42,0,0,1,10.42,10.43Z" style="fill:#263238"></path><path d="M208.86,228.9v19.81H191.4V228.9a8.72,8.72,0,0,1,8.73-8.73h0A8.73,8.73,0,0,1,208.86,228.9Z" style="fill:#c7c7c7"></path><g style="opacity:0.30000000000000004"><path d="M207.77,224.69,191.4,241.07V232.8l12-12a8.68,8.68,0,0,1,2.91,1.92A8.37,8.37,0,0,1,207.77,224.69Z" style="fill:#fff"></path><polygon points="208.86 238.21 208.86 246.48 206.63 248.71 198.36 248.71 208.86 238.21" style="fill:#fff"></polygon><polygon points="208.86 234.58 208.86 236.33 196.48 248.71 194.73 248.71 208.86 234.58" style="fill:#fff"></polygon><path d="M202.05,220.38,191.4,231V228.9a8.1,8.1,0,0,1,.11-1.4l7.23-7.23a9,9,0,0,1,1.38-.11A8.71,8.71,0,0,1,202.05,220.38Z" style="fill:#fff"></path></g><rect x="191.4" y="233.59" width="17.46" height="1.7" style="fill:#263238"></rect><rect x="185.86" y="233.59" width="28.54" height="1.7" transform="translate(434.56 34.31) rotate(90)" style="fill:#263238"></rect><rect x="187.46" y="250.41" width="25.32" height="4.39" style="opacity:0.1"></rect><path d="M245.2,250.41H224.34V228.9a10.43,10.43,0,0,1,10.43-10.43h0A10.43,10.43,0,0,1,245.2,228.9Z" style="fill:#263238"></path><path d="M243.5,228.9v19.81H226V228.9a8.73,8.73,0,0,1,8.73-8.73h0A8.73,8.73,0,0,1,243.5,228.9Z" style="fill:#c7c7c7"></path><g style="opacity:0.30000000000000004"><path d="M242.42,224.69,226,241.07V232.8l12-12a8.74,8.74,0,0,1,4.38,3.89Z" style="fill:#fff"></path><polygon points="243.5 238.21 243.5 246.48 241.27 248.71 233 248.71 243.5 238.21" style="fill:#fff"></polygon><polygon points="243.5 234.58 243.5 236.33 231.12 248.71 229.38 248.71 243.5 234.58" style="fill:#fff"></polygon><path d="M236.7,220.38,226,231V228.9a8.1,8.1,0,0,1,.12-1.4l7.22-7.23a9.09,9.09,0,0,1,1.39-.11A8.78,8.78,0,0,1,236.7,220.38Z" style="fill:#fff"></path></g><rect x="226.04" y="233.59" width="17.46" height="1.7" style="fill:#263238"></rect><rect x="220.5" y="233.59" width="28.54" height="1.7" transform="translate(469.21 -0.33) rotate(90)" style="fill:#263238"></rect><rect x="222.11" y="250.41" width="25.32" height="4.39" style="opacity:0.1"></rect><path d="M279.84,250.41H259V228.9a10.43,10.43,0,0,1,10.43-10.43h0a10.43,10.43,0,0,1,10.43,10.43Z" style="fill:#263238"></path><path d="M278.14,228.9v19.81H260.68V228.9a8.73,8.73,0,0,1,8.73-8.73h0A8.73,8.73,0,0,1,278.14,228.9Z" style="fill:#c7c7c7"></path><g style="opacity:0.30000000000000004"><path d="M277.06,224.69l-16.38,16.38V232.8l12-12a8.62,8.62,0,0,1,4.38,3.89Z" style="fill:#fff"></path><polygon points="278.14 238.21 278.14 246.48 275.91 248.71 267.64 248.71 278.14 238.21" style="fill:#fff"></polygon><polygon points="278.14 234.58 278.14 236.33 265.76 248.71 264.02 248.71 278.14 234.58" style="fill:#fff"></polygon><path d="M271.34,220.38,260.68,231V228.9a8.1,8.1,0,0,1,.12-1.4l7.22-7.23a9.2,9.2,0,0,1,1.39-.11A8.71,8.71,0,0,1,271.34,220.38Z" style="fill:#fff"></path></g><rect x="260.68" y="233.59" width="17.46" height="1.7" style="fill:#263238"></rect><rect x="255.14" y="233.59" width="28.54" height="1.7" transform="translate(503.85 -34.98) rotate(90)" style="fill:#263238"></rect><rect x="256.75" y="250.41" width="25.32" height="4.39" style="opacity:0.1"></rect><path d="M210.55,294.47H189.7V273a10.43,10.43,0,0,1,10.43-10.43h0A10.42,10.42,0,0,1,210.55,273Z" style="fill:#263238"></path><path d="M208.86,273v19.81H191.4V273a8.73,8.73,0,0,1,8.73-8.74h0A8.73,8.73,0,0,1,208.86,273Z" style="fill:#c7c7c7"></path><g style="opacity:0.30000000000000004"><path d="M207.77,268.76,191.4,285.14v-8.27l12-12a8.68,8.68,0,0,1,2.91,1.92A8.37,8.37,0,0,1,207.77,268.76Z" style="fill:#fff"></path><polygon points="208.86 282.28 208.86 290.55 206.63 292.78 198.36 292.78 208.86 282.28" style="fill:#fff"></polygon><polygon points="208.86 278.65 208.86 280.4 196.48 292.78 194.73 292.78 208.86 278.65" style="fill:#fff"></polygon><path d="M202.05,264.45,191.4,275.11V273a8.21,8.21,0,0,1,.11-1.41l7.23-7.22a9,9,0,0,1,1.38-.11A8.71,8.71,0,0,1,202.05,264.45Z" style="fill:#fff"></path></g><rect x="191.4" y="277.66" width="17.46" height="1.7" style="fill:#263238"></rect><rect x="185.86" y="277.66" width="28.54" height="1.7" transform="translate(478.63 78.38) rotate(90)" style="fill:#263238"></rect><rect x="187.46" y="294.47" width="25.32" height="4.39" style="opacity:0.1"></rect><path d="M279.84,294.47H259V273a10.43,10.43,0,0,1,10.43-10.43h0A10.43,10.43,0,0,1,279.84,273Z" style="fill:#263238"></path><path d="M278.14,273v19.81H260.68V273a8.73,8.73,0,0,1,8.73-8.74h0A8.73,8.73,0,0,1,278.14,273Z" style="fill:#c7c7c7"></path><g style="opacity:0.30000000000000004"><path d="M277.06,268.76l-16.38,16.38v-8.27l12-12a8.62,8.62,0,0,1,4.38,3.89Z" style="fill:#fff"></path><polygon points="278.14 282.28 278.14 290.55 275.91 292.78 267.64 292.78 278.14 282.28" style="fill:#fff"></polygon><polygon points="278.14 278.65 278.14 280.4 265.76 292.78 264.02 292.78 278.14 278.65" style="fill:#fff"></polygon><path d="M271.34,264.45l-10.66,10.66V273a8.21,8.21,0,0,1,.12-1.41l7.22-7.22a9.2,9.2,0,0,1,1.39-.11A8.71,8.71,0,0,1,271.34,264.45Z" style="fill:#fff"></path></g><rect x="260.68" y="277.66" width="17.46" height="1.7" style="fill:#263238"></rect><rect x="255.14" y="277.66" width="28.54" height="1.7" transform="translate(547.92 9.09) rotate(90)" style="fill:#263238"></rect><rect x="256.75" y="294.47" width="25.32" height="4.39" style="opacity:0.1"></rect><rect x="189.5" y="365.55" width="90.54" height="26.58" style="fill:#03A9F4"></rect><path d="M215.32,380.81a.56.56,0,0,1,.78-.07,3.44,3.44,0,0,0,2,.81,2.33,2.33,0,0,0,1.33-.39.94.94,0,0,0,.45-.76.62.62,0,0,0-.09-.34,1.07,1.07,0,0,0-.32-.32,4.4,4.4,0,0,0-1.45-.5h0a5.49,5.49,0,0,1-1.37-.41,2.36,2.36,0,0,1-1-.83,1.6,1.6,0,0,1-.24-.87,2,2,0,0,1,.85-1.55,3.13,3.13,0,0,1,1.83-.56,4.14,4.14,0,0,1,2.31.85.54.54,0,0,1,.15.75.53.53,0,0,1-.75.16,3.08,3.08,0,0,0-1.71-.68,2,2,0,0,0-1.19.37.84.84,0,0,0-.4.66.48.48,0,0,0,.08.3,1,1,0,0,0,.28.28,3.57,3.57,0,0,0,1.33.46h0a6.42,6.42,0,0,1,1.46.45,2.36,2.36,0,0,1,1.06.88,1.69,1.69,0,0,1,.26.9,2,2,0,0,1-.92,1.64,3.31,3.31,0,0,1-2,.61,4.67,4.67,0,0,1-2.71-1.06A.58.58,0,0,1,215.32,380.81Z" style="fill:#fff"></path><path d="M222.63,382.07v-6.25a.57.57,0,0,1,.58-.58h3.47a.58.58,0,0,1,.58.58.59.59,0,0,1-.58.59h-2.87v1.94h2.47a.59.59,0,0,1,0,1.18h-2.47v2h2.87a.59.59,0,0,1,.58.59.6.6,0,0,1-.58.59h-3.44s0,0,0,0h0A.58.58,0,0,1,222.63,382.07Z" style="fill:#fff"></path><path d="M228.92,382.07v-6.25a.57.57,0,0,1,.58-.58.58.58,0,0,1,.59.58v5.66H233a.6.6,0,0,1,.58.59.6.6,0,0,1-.58.59H229.5A.58.58,0,0,1,228.92,382.07Z" style="fill:#fff"></path><path d="M234.89,382.07v-6.25a.57.57,0,0,1,.58-.58h3.46a.59.59,0,0,1,.59.58.6.6,0,0,1-.59.59h-2.87v1.94h2.47a.59.59,0,1,1,0,1.18h-2.47v2h2.87a.6.6,0,0,1,.59.59.6.6,0,0,1-.59.59H235.5s0,0,0,0h0A.58.58,0,0,1,234.89,382.07Z" style="fill:#fff"></path><path d="M240.84,378.84a3.89,3.89,0,0,1,3.89-3.82,4,4,0,0,1,2.45.83.62.62,0,0,1,.11.85.62.62,0,0,1-.85.11,2.66,2.66,0,0,0-1.71-.58,2.8,2.8,0,0,0-1.9.76,2.63,2.63,0,0,0-.78,1.85,2.55,2.55,0,0,0,.78,1.84,2.76,2.76,0,0,0,1.9.77,2.63,2.63,0,0,0,1.71-.59.65.65,0,0,1,.85.12.62.62,0,0,1-.11.85,4,4,0,0,1-2.45.83A3.88,3.88,0,0,1,240.84,378.84Z" style="fill:#fff"></path><path d="M253.88,376.41H252.2v5.66a.58.58,0,0,1-.58.59.59.59,0,0,1-.59-.59v-5.66h-1.67a.59.59,0,0,1-.59-.59.58.58,0,0,1,.59-.58h4.52a.58.58,0,0,1,.59.58A.6.6,0,0,1,253.88,376.41Z" style="fill:#fff"></path><rect x="182.51" y="348.46" width="104.53" height="0.79" style="fill:#dbdbdb"></rect><rect x="187.4" y="355.56" width="94.74" height="0.79" style="fill:#dbdbdb"></rect><rect x="190.45" y="352.01" width="88.65" height="0.79" style="fill:#dbdbdb"></rect><rect x="171.77" y="134.46" width="126" height="0.95" style="fill:#c7c7c7"></rect><rect x="181.34" y="138.74" width="106.86" height="0.95" style="fill:#c7c7c7"></rect></g><g id="freepik--character-2--inject-74"><path d="M269,451.5c2.16.7,63.68-.1,66-1.62.9-.56,1.3-9.54,1.48-20.39v-.34c.05-2.24.08-4.54.08-6.88,0-.32,0-.64,0-1l-3-31.92-41.15.41,4.06,31.62,0,1.26.24,6.54,0,.67S273.37,440.73,271,442.67,266.82,450.81,269,451.5Z" style="fill:#ad6359"></path><path d="M269,451.5c2.16.7,63.68-.1,66-1.62.9-.56,1.3-9.54,1.48-20.39v-.34c.05-2.24.08-4.54.08-6.88,0-.32,0-.64,0-1l-40.08.11,0,1.26.24,6.54,0,.67S273.37,440.73,271,442.67,266.82,450.81,269,451.5Z" style="fill:#ebebeb"></path><path d="M269,451.49c1.11.36,17.83.32,34.17,0l9.66-.23c11.66-.32,21.28-.8,22.18-1.38s1.29-9.28,1.47-19.94c0-.15,0-.3,0-.45s0-.24,0-.35h-.05l-39.66.08,0,.67S273.37,440.73,271,442.67,266.82,450.81,269,451.49Z" style="fill:#a6a6a6"></path><path d="M269.64,449.1c10.37-.39,52.23-1,62.5-.57.09,0,.09.06,0,.06-10.27.61-52.13.86-62.51.68C269.43,449.27,269.42,449.11,269.64,449.1Z" style="fill:#263238"></path><path d="M292.35,429.39c4.07-.81,9.07-.25,12.22,2.62.13.11,0,.28-.17.24a57.15,57.15,0,0,0-12-2.34A.26.26,0,0,1,292.35,429.39Z" style="fill:#263238"></path><path d="M289.42,431.2c4.08-.81,9.08-.25,12.23,2.62.12.11,0,.28-.17.24a57.79,57.79,0,0,0-12-2.34A.26.26,0,0,1,289.42,431.2Z" style="fill:#263238"></path><path d="M286.5,433c4.07-.82,9.07-.25,12.23,2.61.12.11,0,.29-.17.25a57.26,57.26,0,0,0-12-2.35A.26.26,0,0,1,286.5,433Z" style="fill:#263238"></path><path d="M303.14,451.49l9.66-.23c11.66-.32,21.28-.8,22.18-1.38s1.29-9.28,1.47-19.94c0-.15,0-.3,0-.45s0-.24,0-.35h-.05C331,433,311.84,445.7,303.14,451.49Z" style="fill:#263238"></path><path d="M294.06,429.36h44.32s-8.93-103.5-8.58-105.3c.44-2.32,3.06-12.8,6.54-26.48,1.09-4.28,2.27-8.88,3.49-13.64,3.31-12.87,6.95-26.95,10.12-39.19l8.48-32.59H320.88S316.5,226,311,244.08c-9,29.34-21,69.72-22.19,79.53C286.88,339.46,294.06,429.36,294.06,429.36Z" style="fill:#263238"></path><path d="M296,421.8c6.76-.14,4.82-.2,11.59-.26,3.31,0,25.08-.23,28.17.29a.07.07,0,0,1,0,.13c-3.09.52-24.86.33-28.17.3-6.77-.07-4.83-.12-11.59-.27A.1.1,0,1,1,296,421.8Z" style="fill:#37474f"></path><path d="M321.46,317.73c1.46-6.41,3.63-12.68,5.52-19q5.76-19.17,11.59-38.31,2.91-9.57,5.84-19.13,1.48-4.83,3-9.66c1-3.14,2.11-6.26,3-9.43.36-1.29.56-.58.1,1.06-.94,3.3-1.86,6.61-2.82,9.91q-2.87,9.78-5.77,19.57-5.76,19.47-11.62,38.92-2.93,9.75-5.87,19.5a80.86,80.86,0,0,0-2.39,9.43,43.69,43.69,0,0,0-.39,10.09c.42,6.78,1.21,13.55,1.83,20.32l1.89,20.33q1.86,20.24,3.71,40.47c.15,1.71.3,3.42.43,5.13.05.57-.82.53-.88,0-1.46-13.34-2.58-26.72-3.83-40.08s-2.49-26.58-3.74-39.88c-.31-3.33-.66-6.68-.67-10A42,42,0,0,1,321.46,317.73Z" style="fill:#37474f"></path><path d="M325.14,212.16c2.61,20.17,7.58,58,11.2,85.42,8.47-33.24,22.09-85.42,22.09-85.42Z" style="fill:#37474f"></path><path d="M315.92,452.09c2.15.71,63.68.13,66-1.38.89-.56,1.33-9.53,1.55-20.38,0-.12,0-.23,0-.34.05-2.24.08-4.54.1-6.88,0-.32,0-.64,0-1,.14-15.66-1-31.92-1-31.92l-40.21.26,1.12,31.63,0,1.25.23,6.54,0,.68S320.35,441.34,318,443.27,313.76,451.4,315.92,452.09Z" style="fill:#ad6359"></path><path d="M315.92,452.09c2.15.71,63.68.13,66-1.38.89-.56,1.33-9.53,1.55-20.38,0-.12,0-.23,0-.34.05-2.24.08-4.54.1-6.88,0-.32,0-.64,0-1l-40.08,0,0,1.25.23,6.54,0,.68S320.35,441.34,318,443.27,313.76,451.4,315.92,452.09Z" style="fill:#ebebeb"></path><path d="M315.92,452.09c2.15.71,63.68.13,66-1.38.89-.56,1.33-9.53,1.55-20.38,0-.12,0-.23,0-.34l-39.7-.08,0,.68S320.35,441.34,318,443.27,313.76,451.4,315.92,452.09Z" style="fill:#a6a6a6"></path><path d="M316.59,449.7c10.37-.35,52.23-.79,62.51-.35.08,0,.08.06,0,.07-10.27.57-52.13.67-62.51.45C316.37,449.86,316.37,449.71,316.59,449.7Z" style="fill:#263238"></path><path d="M339.37,430.07c4.07-.8,9.07-.22,12.22,2.66.12.11,0,.28-.17.24a57.88,57.88,0,0,0-12-2.39A.26.26,0,0,1,339.37,430.07Z" style="fill:#263238"></path><path d="M336.44,431.87c4.07-.8,9.07-.22,12.22,2.66.12.11,0,.28-.17.24a57.22,57.22,0,0,0-12-2.38A.26.26,0,0,1,336.44,431.87Z" style="fill:#263238"></path><path d="M333.51,433.67c4.07-.79,9.07-.21,12.22,2.66.12.12,0,.29-.17.25a57.24,57.24,0,0,0-12-2.39A.26.26,0,0,1,333.51,433.67Z" style="fill:#263238"></path><path d="M322.09,212.16s.87,18,5,32.19c.33,1.18.69,2.34,1.07,3.45A66.38,66.38,0,0,1,339,253.36s.43,14.46.86,30.58c.48,18,1,38.13.88,42.39-.38,16,2,103.68,2,103.68l44.3.18s-8-98-8-103.81c.09-9.39-2.14-50.91-3.86-81.19-1.06-18.65-1.92-33-1.92-33Z" style="fill:#263238"></path><path d="M344.22,422.13c6.77-.12,4.83-.18,11.6-.22,3.31,0,25.08-.11,28.17.42.07,0,.06.12,0,.13-3.1.5-24.86.22-28.18.17-6.77-.09-4.82-.14-11.59-.31A.1.1,0,0,1,344.22,422.13Z" style="fill:#37474f"></path><path d="M369.54,218.58c.82,24.71,1.68,49.43,2.79,74.14s2.6,49.57,4.68,74.3c1.16,13.82,2.25,33.25,3.74,47,0,.09-.13.12-.14,0-3.23-24.52-5-54.84-6.62-79.51s-2.66-49.38-3.5-74.09c-.47-14-.84-28-1.25-41.93C369.23,218.36,369.54,218.38,369.54,218.58Z" style="fill:#37474f"></path><path d="M326.3,246.73A82.1,82.1,0,0,1,339,253.36c.16.1,0,.35-.13.26-4.28-2.07-8.64-4.07-12.8-6.38A.29.29,0,0,1,326.3,246.73Z" style="fill:#37474f"></path><path d="M326.05,231.48c.3,1.58.68,3.14,1,4.7s.55,3,.94,4.42a7.52,7.52,0,0,0,2.06,3.7c.58.54,1.21,1,1.82,1.5.34.27.69.52,1,.79-.05-.21-.08-.42-.12-.63-.11-.6-.21-1.2-.31-1.8-.22-1.32-.43-2.65-.64-4-.39-2.61-.76-5.25-1.31-7.84a.09.09,0,0,1,.17,0c.65,2.56,1.36,5.1,1.93,7.68.28,1.27,1.27,7.53,1.32,8s.08.92.1,1.38a6,6,0,0,1,0,1.41c0,.11-.17.09-.22,0h0a5.32,5.32,0,0,1-.4-1.36c-.12-.45-.22-.9-.3-1.36,0-.16,0-.33-.07-.49-.62-.38-1.19-.87-1.77-1.29s-1.25-.89-1.84-1.38a7,7,0,0,1-2.25-3.52,26.08,26.08,0,0,1-.74-4.5c-.19-1.77-.34-3.56-.59-5.33C325.88,231.42,326,231.38,326.05,231.48Z" style="fill:#37474f"></path><path d="M342.25,171.44c-3.44,10.34-18.8,43.18-25.25,45.47-6.72,2.39-32.67,5.36-38.43.82-2.82-2.22-3.8-26,0-25.39s26.68,1.43,29.4.45,20.91-27.44,28.29-33.85C349,147.89,344.1,165.88,342.25,171.44Z" style="fill:#ad6359"></path><path d="M284.33,191.94l.38,29.58s26.6.07,33.69-3.66,22.1-37.92,25.84-51-2.24-15.11-11.77-5.51-23.87,29.72-25.57,30.14S284.33,191.94,284.33,191.94Z" style="fill:#03A9F4"></path><path d="M292.09,206.54c0-2.34-.18-11.71-.39-14,0,0-.07,0-.07,0-.23,2.26-.35,11.51-.33,13.86a126.54,126.54,0,0,0,.52,14c0,.08.14.1.15,0C292.32,215.8,292.13,211.16,292.09,206.54Z" style="fill:#263238"></path><path d="M344.25,166.86c-3.75,13.09-18.75,47.27-25.84,51-3.4,1.79-11.28,2.71-18.57,3.17l41.78-65.63C345.19,155,346.54,158.87,344.25,166.86Z" style="opacity:0.1"></path><path d="M377.88,238.85c-.16.16-65.07-4.28-65.62-5-.76-1,19.79-67,24.94-76.66,2.19-4.13,12.69-4.72,16.84-.82,10.39,9.77,17.62,41.36,19.14,50.84C375.7,222.82,378.46,238.28,377.88,238.85Z" style="fill:#03A9F4"></path><path d="M361.68,162.47c17.41,18.87,37.13,50.77,28.88,57.7-7.53,6.32-28.28,1.91-45.77-4.74-3.33-1.27,1.49-30.24,4.89-28.52a73.25,73.25,0,0,0,13.76,4.91c1,.25-5.69-7.93-11.67-23.26C345.7,153,351.73,151.69,361.68,162.47Z" style="fill:#ad6359"></path><path d="M314.42,185.24c-.1,3,7.32,2.61,7.32,2.61a5.55,5.55,0,0,0-2.34,3c-.62,2.2,2.55,4.13,2.55,4.13a6.86,6.86,0,0,0-2,3.51c-.38,2.16,2.54,4.57,2.54,4.57a6,6,0,0,0,.21,4.18c1.67,3.47,7.58,3.7,11.21,4.57a78.79,78.79,0,0,1,11.88,4.16l7.55-26.78s-15.59-9.85-20-9.76C329.61,179.46,314.57,180.65,314.42,185.24Z" style="fill:#ad6359"></path><path d="M321.8,187.77a50.54,50.54,0,0,1,12.2-1.15.07.07,0,0,1,0,.14c-4,0-8.15,1.06-12.17,1.2C321.72,188,321.7,187.8,321.8,187.77Z" style="fill:#263238"></path><path d="M322.07,194.64a10.78,10.78,0,0,1,2.78-.08c1,0,2,.1,3,.18q3,.21,5.9.58c.08,0,.09.15,0,.14-2-.14-3.93-.25-5.9-.31l-3-.07a12.3,12.3,0,0,1-2.78-.17A.14.14,0,0,1,322.07,194.64Z" style="fill:#263238"></path><path d="M322.6,203a7.57,7.57,0,0,1,2.51.06l2.7.24c1.79.15,3.58.3,5.38.39.09,0,.09.15,0,.14-1.82-.08-3.65-.13-5.48-.23l-2.69-.16a7.12,7.12,0,0,1-2.43-.35S322.57,203,322.6,203Z" style="fill:#263238"></path><path d="M353.83,185.77l-6.34,33s41.37,10.38,45.55-.1-20.44-49-34.53-59.95-8.68,6.44-8.24,7.83c1.94,6.17,10.89,22.24,10.89,22.24Z" style="fill:#03A9F4"></path><path d="M354.54,185.79c4.75,1.63,17.23,7.71,20,10.22.08.08,0,.21-.09.15-2.7-1.87-18.12-9.24-20.53-10.14a3.66,3.66,0,0,1-.16.38c-.08.11-.15,0-.14-.06a6.11,6.11,0,0,1,.16-.81Z" style="fill:#263238"></path><path d="M358.24,204.2c.43-2.3,2.06-11.53,2.29-13.85,0,0,0-.06-.06,0-.66,2.17-2.54,11.23-3,13.54a125.48,125.48,0,0,0-2.16,13.88c0,.09.12.13.14,0C356.71,213.33,357.4,208.74,358.24,204.2Z" style="fill:#263238"></path><path d="M361.49,189c-1.32-2.79-2.92-5.45-4.36-8.18s-2.95-5.42-4.29-8.19c0,0-.08,0-.07,0,.83,1.89,1.65,3.77,2.52,5.62q-.39-.43-.75-.9c-.44-.56-.85-1.14-1.25-1.73a0,0,0,0,0-.06,0,9.58,9.58,0,0,0,1.16,1.85,12.62,12.62,0,0,0,1.11,1.2c.36.76.73,1.51,1.12,2.26,1.44,2.76,2.55,5.5,4.39,8C361.07,189.11,361.54,189.1,361.49,189Z" style="fill:#263238"></path><path d="M375.51,223.19c-4.87,0-23.3-3.46-27.86-4.35.06-.49,0-.65.11-1.34,0-.09-.13-.13-.15,0-.12.64-.54,1.94-.36,2,2.2.83,23.48,4.35,28.26,3.91A.1.1,0,0,0,375.51,223.19Z" style="fill:#263238"></path><polygon points="322.7 224.43 288.16 224.94 280.91 176.15 315.45 175.64 322.7 224.43" style="fill:#263238"></polygon><polygon points="321 224.45 286.46 224.97 279.21 176.18 313.75 175.66 321 224.45" style="fill:#37474f"></polygon><path d="M295.54,198.24a3.74,3.74,0,0,0,3.71,3.31,3,3,0,0,0,3-3.41,3.74,3.74,0,0,0-3.7-3.3A3,3,0,0,0,295.54,198.24Z" style="fill:#fff"></path><path d="M278.53,186.59c-1.73,3.48-6,7.77-6.4,10.63a3.32,3.32,0,0,0,1.78,3.53s-2.88,1.37-2.81,4c0,1.37,2.25,2.51,2.25,2.51a3.94,3.94,0,0,0-2.06,3.56c.16,1.88,2.36,2.74,2.36,2.74s-1.63,2.17-.85,4c1.58,3.77,17.77,4,20.37-1.86,1.21-2.76-2.74-2.62-2.74-2.62s5.64-1.58,5.78-4.91-5-2.84-5-2.84,5.45-1.58,5.25-5c-.21-3.62-5.25-2.24-5.25-2.24s3.64-2.37,2.88-5c-1.26-4.33-8.17,1-11.71.06l-1.86-5.9Z" style="fill:#ad6359"></path><path d="M275.19,191.63c1.35-3.43-2.86-7.78-2-11.26,1.1-4.69,6.33,0,7.39,6.89l-.12,5.48Z" style="fill:#ad6359"></path><path d="M274,213.78c-.06,0-.08.07,0,.08a28,28,0,0,0,16.69-.7c.16-.06.13-.37-.07-.33A57.45,57.45,0,0,1,274,213.78Z" style="fill:#263238"></path><path d="M273.27,207.32a.06.06,0,0,0,0,.12,26.28,26.28,0,0,0,18.15-1.9c.2-.1.27-.39,0-.29C287.54,207,278.47,207.86,273.27,207.32Z" style="fill:#263238"></path><path d="M291.57,197.75c-5.53,2.67-11.36,3.29-17.44,3.07-.08,0-.07.11,0,.13,2.95.92,6.84.65,9.84.19a16.19,16.19,0,0,0,7.7-3.19C291.75,197.88,291.69,197.7,291.57,197.75Z" style="fill:#263238"></path><path d="M335.36,159.63a0,0,0,0,1,.05,0c0,3,.34,9.8,4.92,9a9.77,9.77,0,0,0,4.78-2.85,25.36,25.36,0,0,0,3.61-4.27,37.87,37.87,0,0,0,3.26-5.39c0-.08.16,0,.12.08-1,1.88-1.73,3.82-2.86,5.61a23,23,0,0,1-3.89,4.73,9.84,9.84,0,0,1-5.1,2.81,3.73,3.73,0,0,1-4-2.51A16.63,16.63,0,0,1,335.36,159.63Z" style="fill:#263238"></path><path d="M339.84,165.55c3.35.07,8.39-6.53,9.7-10.94.09-.3-.94-3.06-2-6.48-.66-2.07-1.33-4.4-1.8-6.56l-12.88,6.21a35.51,35.51,0,0,1,3.1,8,4.92,4.92,0,0,1,.09.91s0,.1,0,.15C336.13,158.63,336.61,165.48,339.84,165.55Z" style="fill:#ad6359"></path><path d="M336,156.73a.86.86,0,0,0,0,.15,9.73,9.73,0,0,0,1.41-.22c7.83-1.86,7.61-11.89,7.39-14.67l-3.22,1.55-8.79,4.25a35,35,0,0,1,3.09,8A4.8,4.8,0,0,1,336,156.73Z" style="fill:#263238"></path><path d="M341.74,124.39c3,4.16,5.27,18.46,3,22.61-3.28,6-11,9.18-16.7,4.7-5.53-4.34-8.11-23-5.36-27C326.73,118.75,337.24,118.25,341.74,124.39Z" style="fill:#ad6359"></path><path d="M345,135.59c-2.08.82-4.26-3.83-4.26-3.83s-4.65,3.47-7.41-3.49c0,0-5.35,4.38-9.93,3.77-3.92-.51-7.75-5.36-6.62-9.55.64-2.35,3.75-5.48,11.48-2.2,0,0,5.39-7.84,11.5-.06,0,0,4-1,5.83,2.53C348.48,128.3,346.76,134.87,345,135.59Z" style="fill:#263238"></path><path d="M333.1,127.78a.06.06,0,0,1,.12,0c.33,1.82.7,3.8,2.57,4.66a4.38,4.38,0,0,0,5.23-1c.07-.09.22,0,.14.11a4.78,4.78,0,0,1-5.11,1.35C333.86,132.12,333.13,129.9,333.1,127.78Z" style="fill:#263238"></path><path d="M344.39,134.57c2.31-2.59,3.57-5.86,2.53-9.33a7,7,0,0,0-2.91-4.09c-1.36-.82-2.9-.72-4.41-1,0,0,0-.07,0-.07,8.38-1,10.73,9.86,5.08,14.74C344.5,135,344.23,134.74,344.39,134.57Z" style="fill:#263238"></path><path d="M315.8,122.92c1.47-5.75,8.95-5.1,12.77-2.37,0,0,0,0,0,0-3.26-1.91-8.87-2.86-11.41.6-3.07,4.18,1.43,10.91,6.4,9.83a.13.13,0,0,1,.06.26C319.16,132.59,314.71,127.2,315.8,122.92Z" style="fill:#263238"></path><path d="M344.75,147c-3.28,6-11,9.18-16.69,4.7-1.7-1.33-3.12-4-4.19-7.23,2.55,2.13,4.21-.86,4.21-.86l1.28-.36c4.13,1.91,8.42-.24,10.21-1.57,1.35-1,3.35-4.37,3.35-4.37l2.72,2.65C345.78,143,345.53,145.58,344.75,147Z" style="fill:#263238;opacity:0.2"></path><path d="M331.82,137.7s.08,0,.09.08c.12,1,.43,2.05,1.35,2.23a0,0,0,0,1,0,.05C332.17,140.09,331.78,138.64,331.82,137.7Z" style="fill:#263238"></path><path d="M332.52,136.56c1.53-.37,2.15,2.72.73,3.06S331.23,136.87,332.52,136.56Z" style="fill:#263238"></path><path d="M326.36,138.62s-.07.06-.06.1c.23.95.32,2.07-.48,2.56,0,0,0,.07,0,.05C326.87,141,326.72,139.48,326.36,138.62Z" style="fill:#263238"></path><path d="M325.31,137.79c-1.56.19-1.06,3.3.38,3.12S326.61,137.63,325.31,137.79Z" style="fill:#263238"></path><path d="M333.45,134.9a11,11,0,0,1-1.28-.18,2.05,2.05,0,0,1-1.27-.43.65.65,0,0,1,0-.81,1.66,1.66,0,0,1,1.59-.5,2.44,2.44,0,0,1,1.58.76A.71.71,0,0,1,333.45,134.9Z" style="fill:#263238"></path><path d="M324,137.26c.41-.16.76-.37,1.16-.57a2.05,2.05,0,0,0,1.07-.8.66.66,0,0,0-.2-.79,1.66,1.66,0,0,0-1.67,0,2.44,2.44,0,0,0-1.27,1.2A.72.72,0,0,0,324,137.26Z" style="fill:#263238"></path><path d="M335,145.38c-.05.33-.05.72-.32,1a2.49,2.49,0,0,1-1,.44s0,0,0,.06a1.28,1.28,0,0,0,1.3-.32,1,1,0,0,0,.1-1.15C335.05,145.31,335,145.34,335,145.38Z" style="fill:#263238"></path><path d="M333.2,143.3a3.25,3.25,0,0,1-1.88,1.88,3.8,3.8,0,0,1-1.16.29.82.82,0,0,1-.22,0h-.22a.24.24,0,0,1-.24-.17h0s0-.06,0-.1h0v-.08c-.17-.73-.33-1.87-.33-1.87-.24.19-1.48,1.09-1.54.7a50.1,50.1,0,0,1-.72-10.1.09.09,0,0,1,.18,0c.55,3.08.56,6.24,1.07,9.34a5.74,5.74,0,0,1,1.45-.78c.11,0,.25,2.2.36,2.52a.1.1,0,0,0,0,0,4.67,4.67,0,0,0,3.16-1.73C333.16,143.16,333.25,143.21,333.2,143.3Z" style="fill:#263238"></path><path d="M330.66,145.25a3.54,3.54,0,0,0,1.64.73,1.6,1.6,0,0,0,.95-.17c.64-.35.5-1,.25-1.48a3.87,3.87,0,0,0-.51-.74A4.57,4.57,0,0,1,330.66,145.25Z" style="fill:#263238"></path><path d="M332.3,146a1.6,1.6,0,0,0,.95-.17c.64-.35.5-1,.25-1.48A1.64,1.64,0,0,0,332.3,146Z" style="fill:#ff9cbd"></path><path d="M334,143.13a4.3,4.3,0,0,1-4.42-4.14h0a4.28,4.28,0,1,1,5.47,4A4.61,4.61,0,0,1,334,143.13ZM330.11,139a3.71,3.71,0,1,0,3.59-3.83,3.4,3.4,0,0,0-.91.15A3.71,3.71,0,0,0,330.11,139Z" style="fill:#03A9F4"></path><path d="M325,144.58c-1.73.29-3.45-1.37-3.84-3.7a5.18,5.18,0,0,1,.4-3.1,2.67,2.67,0,0,1,4.5-.75,5.14,5.14,0,0,1,1.39,2.81c.36,2.2-.6,4.22-2.17,4.68ZM322.1,138a4.57,4.57,0,0,0-.35,2.75c.34,2,1.77,3.46,3.19,3.23s2.31-2.07,2-4.09a4.52,4.52,0,0,0-1.22-2.49,2.26,2.26,0,0,0-2-.74l-.22.05A2.38,2.38,0,0,0,322.1,138Z" style="fill:#03A9F4"></path><path d="M329.76,139.45l.29-.49c-.73-.43-2.33-.91-3.17.36l.47.32C328.11,138.5,329.7,139.41,329.76,139.45Z" style="fill:#03A9F4"></path><path d="M348.76,137.41l.45-.34c-.16-.21-1.59-2.09-2.89-2.08s-8.66,2-9,2l.14.56c2.14-.57,7.9-2,8.83-2S348.37,136.9,348.76,137.41Z" style="fill:#03A9F4"></path><path d="M342.69,136.35s1.63-5.37,4-4.93,2.11,7.54.07,9.17a2.5,2.5,0,0,1-3.6-.24Z" style="fill:#ad6359"></path><path d="M346.54,133.45a0,0,0,0,1,0,.06,6.31,6.31,0,0,0-1.88,4.76,1.39,1.39,0,0,1,1.84-1,.06.06,0,0,1,0,.11,1.53,1.53,0,0,0-1.44,1,6.81,6.81,0,0,0-.34,1.55c0,.17-.32.18-.32,0v0C343.71,137.84,344.37,134.39,346.54,133.45Z" style="fill:#263238"></path><path d="M336,156.65l4.53,7.58,8.44-11.83,3.37,2.83s-7.26,17.83-7.44,17.11l-4.44-6.45-4.05,5.62-1.54-12.25Z" style="fill:#fff"></path><path d="M335.27,165.49c-.19-2-.43-4.07-.53-6.1,0-.08.11-.12.14,0,.71,1.87,1.38,9.64,1.68,11.48l0,0c.17-.24,3.78-5,3.84-4.92.9,1,4.15,5.68,4.39,6.12,1.15-2.83,5.62-13.17,7.08-15.91a.07.07,0,0,1,.13.06c-.94,2.94-6.83,16.84-7,16.83a80.43,80.43,0,0,1-4.66-6.83c-.58,1-4.15,6.27-4.22,6A64.22,64.22,0,0,1,335.27,165.49Z" style="fill:#263238"></path></g><g id="freepik--character-1--inject-74"><path d="M327.06,453.42c2.08.62,60.89-1.36,63.08-2.86.85-.56,1.06-9.14,1-19.52v-.33c0-2.14,0-4.34-.07-6.57,0-.31,0-.62,0-.93-.23-15-.79-30.51-.79-30.51l-38.84,1,1.31,30.46.07,1.19.36,6.25,0,.65S331.06,443,328.82,444.94,325,452.8,327.06,453.42Z" style="fill:#ad6359"></path><path d="M343.51,436.36c.13-.05.21-.09.22-.12Z" style="fill:#03A9F4"></path><path d="M325.92,453.82c1.38.41,26.83-.3,45.35-1.26,4.28-.23,8.2-.47,11.36-.71,4.35-.33,7.27-.66,7.73-1,.81-.55,1.3-24.59,1-27.41l-38.78,1.29.07,7.39s-22.65,11.08-24.93,13S323.81,453.19,325.92,453.82Z" style="fill:#03A9F4"></path><path d="M327.26,451.37c10.06-.59,50.7-2,60.69-1.85.08,0,.08.06,0,.07-10,.8-50.61,1.91-60.69,2C327.05,451.54,327.05,451.39,327.26,451.37Z" style="fill:#263238"></path><path d="M351.7,429.94c3.94-.88,8.81-.43,11.93,2.29.12.1,0,.27-.16.24a55.52,55.52,0,0,0-11.73-2A.25.25,0,0,1,351.7,429.94Z" style="fill:#263238"></path><path d="M348.9,431.76c3.94-.87,8.81-.43,11.93,2.29.12.1,0,.27-.16.24a55.5,55.5,0,0,0-11.74-2A.25.25,0,0,1,348.9,431.76Z" style="fill:#263238"></path><path d="M346.1,433.58c3.94-.87,8.8-.43,11.93,2.29.12.1,0,.27-.16.24a55.5,55.5,0,0,0-11.74-2A.25.25,0,0,1,346.1,433.58Z" style="fill:#263238"></path><path d="M343.3,435.4c3.94-.87,8.8-.43,11.93,2.29.12.11,0,.28-.16.24a56.15,56.15,0,0,0-11.74-2A.25.25,0,0,1,343.3,435.4Z" style="fill:#263238"></path><path d="M346,426.61c2.88,2.08,6.55,2.85,9.87,3.95.34.11.6-.22.6-.52a.1.1,0,0,0,.09-.15,21.18,21.18,0,0,0-6.41-8.86c-1.7-1.34-4.64-2.2-6.12,0S344.36,425.39,346,426.61Zm-1.12-3.16c-.85-4.32,3.9-2.2,5.11-1.16a21.46,21.46,0,0,1,2.18,2.19,61.47,61.47,0,0,1,3.86,5.1c-1.59-.64-3.23-1.14-4.84-1.72C349.3,427.17,345.39,425.84,344.92,423.45Z" style="fill:#263238"></path><path d="M369.62,423.4c-1-2.44-4.08-2.14-6-1.15a21.09,21.09,0,0,0-8,7.5.1.1,0,0,0,.05.16c-.05.3.14.67.5.62,3.46-.45,7.22-.51,10.44-2C368.52,427.64,370.61,425.71,369.62,423.4Zm-8.31,5.37c-1.7.26-3.4.44-5.09.77,1.56-1.46,3-3,4.76-4.28a22.05,22.05,0,0,1,2.55-1.74c1.39-.79,6.45-2,4.8,2.11C367.42,427.88,363.33,428.45,361.31,428.77Z" style="fill:#263238"></path><path d="M411.81,221.49S391.35,324.28,389.9,331.87c-.23,1.21,5.17,42.43,5.44,65.37A28.11,28.11,0,0,1,391,412.93l-40.57,1.82s-4.45-6-4.55-12.19c-.3-19.85,3.59-60.93,5-72.49,1.84-15.17,25-108.58,25-108.58Z" style="fill:#37474f"></path><path d="M388.86,405.4c-6.48.08-4.62,0-11.09.12-3.17.08-24,.61-26.92,1.2-.06,0-.06.12,0,.13,3,.39,23.78-.5,26.94-.64,6.47-.28,4.61-.27,11.07-.62A.1.1,0,0,0,388.86,405.4Z" style="fill:#263238"></path><path d="M384.6,332.18c.46-5.66,1.75-11.27,2.82-16.84s2.16-11.42,3.25-17.13c2.14-11.31,4.25-22.62,6.42-33.92,2.45-12.78,6-25.27,8.53-38,.06-.29.49-.15.44.14-4,22.67-9.33,45-13.61,67.63q-1.63,8.56-3.25,17.13c-1.05,5.57-2.24,11.13-3.15,16.72a46.26,46.26,0,0,0-.62,8.79c.07,2.77.36,5.53.61,8.29q.79,8.68,1.57,17.38.84,9.56,1.65,19.11c.55,6.48,1.16,13,1.48,19.46,0,.09-.14.1-.15,0-1.52-11.43-2.42-23-3.51-34.44q-.82-8.7-1.62-17.39C385,343.51,384.15,337.81,384.6,332.18Z" style="fill:#263238"></path><path d="M380.19,221.48,393,316.28c6.08-30.7,18.84-94.8,18.84-94.8Z" style="fill:#263238"></path><path d="M395.4,456c2.11.52,60.75-4.41,62.86-6,.81-.59.59-9.18,0-19.55,0-.1,0-.21,0-.32-.11-2.14-.24-4.34-.4-6.56,0-.31,0-.62-.05-.92l-6.05-30.54-40.48,3.28,8.3,30.08.13,1.19.68,6.23.07.64s-21.6,11.92-23.74,13.94S393.3,455.45,395.4,456Z" style="fill:#ad6359"></path><path d="M411,438.1c.13-.05.2-.1.21-.13Z" style="fill:#03A9F4"></path><path d="M394.28,456.43c1.4.33,26.78-1.65,45.22-3.54,4.27-.44,8.17-.88,11.32-1.28,4.33-.55,7.22-1,7.67-1.37.78-.59.07-24.62-.38-27.43l-38.66,3.24.43,7.38s-22.06,12.2-24.24,14.25S392.14,455.9,394.28,456.43Z" style="fill:#03A9F4"></path><path d="M395.49,453.91c10-1.09,50.54-4.57,60.52-4.89.08,0,.09.05,0,.06-9.91,1.31-50.45,4.45-60.51,5C395.29,454.09,395.28,453.94,395.49,453.91Z" style="fill:#263238"></path><path d="M418.83,431.28c3.89-1.07,8.77-.88,12,1.68.13.1,0,.28-.15.25a55.29,55.29,0,0,0-11.82-1.43A.25.25,0,0,1,418.83,431.28Z" style="fill:#263238"></path><path d="M416.12,433.24c3.89-1.07,8.78-.88,12,1.68.13.1,0,.28-.14.25a55.39,55.39,0,0,0-11.83-1.43A.26.26,0,0,1,416.12,433.24Z" style="fill:#263238"></path><path d="M413.42,435.2c3.89-1.07,8.77-.88,12,1.68.12.1,0,.28-.15.25a55.29,55.29,0,0,0-11.82-1.43A.25.25,0,0,1,413.42,435.2Z" style="fill:#263238"></path><path d="M410.71,437.16c3.89-1.07,8.77-.88,12,1.68.13.1,0,.28-.15.25a55.29,55.29,0,0,0-11.82-1.43A.25.25,0,0,1,410.71,437.16Z" style="fill:#263238"></path><path d="M413,428.24c3,1.93,6.69,2.51,10.05,3.44.35.1.59-.24.58-.54a.11.11,0,0,0,.08-.15,21.14,21.14,0,0,0-6.85-8.54c-1.77-1.24-4.74-2-6.11.31S411.27,427.11,413,428.24Zm-1.28-3.1c-1.06-4.27,3.79-2.39,5-1.42a23.74,23.74,0,0,1,2.29,2.08c1.5,1.53,2.77,3.24,4.11,4.9-1.63-.56-3.29-1-4.93-1.47C416.29,428.63,412.32,427.5,411.73,425.14Z" style="fill:#263238"></path><path d="M436.4,423.85c-1.16-2.38-4.19-1.93-6.06-.85a21.17,21.17,0,0,0-7.58,7.89.1.1,0,0,0,.07.16c0,.3.17.66.52.6,3.44-.63,7.19-.88,10.33-2.54C435.51,428.14,437.5,426.11,436.4,423.85Zm-8,5.78c-1.68.35-3.37.61-5,1a62.32,62.32,0,0,1,4.53-4.52,22.44,22.44,0,0,1,2.46-1.87c1.35-.85,6.34-2.3,4.9,1.87C434.43,428.43,430.37,429.21,428.36,429.63Z" style="fill:#263238"></path><path d="M416.66,418.31l39.42-4.38s3.84-10.35,1.47-20.19c-5-20.74-19.19-52.64-20.2-56.29-1.54-5.58-5-50.49-8.33-78.26,0,0,6.34-15-5.53-37.74H375.87s3.19,21.61,8.65,35.31c0,0-1-.77,5.42,2.77,0,0,3.94,70.54,6.82,83.9,2.38,11,6.53,46.36,11.44,64.21C410,414,416.66,418.31,416.66,418.31Z" style="fill:#37474f"></path><path d="M453.42,405.25c-6.44.6-4.6.34-11,1-3.15.33-23.85,2.5-26.74,3.32-.06,0-.05.13,0,.13,3,.15,23.65-2.38,26.8-2.77,6.42-.79,4.57-.63,11-1.5A.1.1,0,0,0,453.42,405.25Z" style="fill:#263238"></path><path d="M382.72,255.82a78.82,78.82,0,0,1,12.39,5.78.14.14,0,0,1-.12.25c-4.17-1.79-8.43-3.51-12.5-5.53A.28.28,0,0,1,382.72,255.82Z" style="fill:#263238"></path><path d="M381.39,227.17c0-.14.26-.17.26,0a139.61,139.61,0,0,0,.7,13.95c.2,2.15,1.93,14,5.66,13.17.62-.14.94-.76,1-1.7a15.13,15.13,0,0,0-.5-3.64c-.41-2.49-.74-5-1-7.5a68.12,68.12,0,0,1,.15-14.06.12.12,0,0,1,.24,0,129.77,129.77,0,0,0,1.14,19.41c.47,3.09,2,7.75-1.21,8.22s-5.42-7.31-5.83-9.44A71.31,71.31,0,0,1,381.39,227.17Z" style="fill:#263238"></path><path d="M387.91,254.59a23.15,23.15,0,0,1,.84,2.47,5.64,5.64,0,0,1,.34,2,.14.14,0,0,1-.25.06,7.09,7.09,0,0,1-.87-2c-.28-.76-.58-1.52-.85-2.29A.42.42,0,0,1,387.91,254.59Z" style="fill:#263238"></path><path d="M420.4,223.76a40.12,40.12,0,0,1,5.22,14.44,44.62,44.62,0,0,1-.49,15.46,34,34,0,0,0-.7,9c.22,3.1.64,6.19,1,9.28q1,9.08,2,18.16c1.34,12.06,2.57,24.14,4.15,36.17a148.84,148.84,0,0,0,3.32,17.51c1.46,5.7,3.2,11.32,4.94,16.94,3.6,11.58,7.21,23.16,10.66,34.78.43,1.45.86,2.91,1.27,4.36a.1.1,0,0,1-.19,0c-3.91-11.42-7.36-23-11-34.52-3.54-11.26-7.13-22.49-9-34.17-.94-5.94-1.57-11.93-2.25-17.91s-1.38-12.11-2.06-18.16-1.37-12-2-18c-.33-3-.67-6.05-1-9.08a63.59,63.59,0,0,1-.63-8.72,69.16,69.16,0,0,1,1.26-8.57,39.58,39.58,0,0,0,.46-7.92,41.51,41.51,0,0,0-3.69-15.41c-.55-1.18-.85-2.42-1.5-3.56C420,223.64,420.21,223.45,420.4,223.76Z" style="fill:#263238"></path><path d="M406.34,225.79c.76,2,1.64,4,2.56,5.94a15.11,15.11,0,0,0,3.18,4.81A12,12,0,0,0,416.9,239a27.48,27.48,0,0,0,3.12.67,21.32,21.32,0,0,1,3.17.59.21.21,0,0,1,0,.4,13.88,13.88,0,0,1-3.41.09,18.79,18.79,0,0,1-3.26-.44,11.77,11.77,0,0,1-5.28-2.69,14.22,14.22,0,0,1-3.23-5.26,35.85,35.85,0,0,1-1.93-6.49A.14.14,0,0,1,406.34,225.79Z" style="fill:#263238"></path><path d="M389.94,259.53c0-.13.23-.16.26,0,.37,1.64,1,8.42,1.17,10.13.33,3.44.56,6.89.82,10.34.52,6.81,1.47,31.59,1.51,33.53,0,.12-.18.11-.19,0-.2-1.71-1.34-18.47-1.6-21.88-.52-6.85-1-13.7-1.49-20.55C390.3,269.17,389.81,261.46,389.94,259.53Z" style="fill:#263238"></path><path d="M377.05,138.79c-4.56,6-4.89,14.81-4.89,14.81s-3.88,9.39-1.82,13.9a8.69,8.69,0,0,0,6.27,5.08l-.86-2.55s2.15,3.13,8,3.71,13.1-2.18,16.73-4.69a15.06,15.06,0,0,0,5-5.81l-.95,4a11.35,11.35,0,0,0,7.94-7.23c2.47-6.29-8.05-13.42-9.09-15.13s-3.85-14.75-17.42-10.59C386,134.28,380.19,134.69,377.05,138.79Z" style="fill:#263238"></path><path d="M374.55,172.51a8.92,8.92,0,0,1-4.19-3.34,8.15,8.15,0,0,1-1.58-5.08,17.84,17.84,0,0,1,1.81-6.21c.87-2.06,1.89-4,2.73-6.12,0-.11-.13-.18-.19-.08a49.21,49.21,0,0,0-2.83,5,24.06,24.06,0,0,0-2.09,5,8.78,8.78,0,0,0,0,4.95,8.54,8.54,0,0,0,2.23,3.41,18.59,18.59,0,0,0,4,2.56C374.58,172.68,374.65,172.54,374.55,172.51Z" style="fill:#263238"></path><path d="M412.86,153.82c-2.32-4.63-7.11-7.12-10.34-11-1.76-2.1-3.21-4.49-5.36-6.22-.06-.05-.14,0-.08.1a32.74,32.74,0,0,1,4.35,5.52,36.31,36.31,0,0,0,4.91,5.16c3.2,2.93,7,6.38,7,11.08,0,2.17-.94,4.7-3,5.67-.08,0,0,.17.07.12a6.87,6.87,0,0,0,3.29-4.35A8.78,8.78,0,0,0,412.86,153.82Z" style="fill:#263238"></path><path d="M413.24,155.1a9,9,0,0,0-1.93-5.1,12.73,12.73,0,0,0-4.47-3.16c-1.9-.92-3.87-1.77-5.23-3.45-.05-.07-.15,0-.1.1,2.16,2.78,5.68,3.73,8.28,6,3,2.55,3.55,6.78,2.23,10.34a14.88,14.88,0,0,1-3.95,5.68s0,.07,0,0C411.1,162.92,413.54,159.22,413.24,155.1Z" style="fill:#263238"></path><path d="M424.16,221.25l-49.73,2.94L378,205.51s-4.47-4.94-3.43-10.24c1.47-7.45,11.46-22.38,12.34-23.23,3.53-3.4,9.47-3.93,12.27-1.38C416,185.9,424.16,221.25,424.16,221.25Z" style="fill:#c7c7c7"></path><path d="M399.37,170.8l-11.76.67c.2-.17.4-.32.6-.46l10.69-.61.32.26Z" style="fill:#a6a6a6"></path><path d="M403.37,175l-19.26,1.09c.1-.15.19-.3.29-.44L403,174.62Z" style="fill:#a6a6a6"></path><path d="M406.61,179.3l-25.35,1.43.26-.43,24.8-1.41C406.42,179,406.52,179.16,406.61,179.3Z" style="fill:#a6a6a6"></path><path d="M409.37,183.59l-30.69,1.74.23-.43,30.21-1.71C409.21,183.32,409.29,183.45,409.37,183.59Z" style="fill:#a6a6a6"></path><path d="M411.79,187.91l-35.34,2c.05-.14.12-.28.18-.43l34.94-2Z" style="fill:#a6a6a6"></path><path d="M414,192.23l-39.15,2.22c0-.14.07-.28.11-.42l38.85-2.21C413.82,192,413.89,192.09,414,192.23Z" style="fill:#a6a6a6"></path><path d="M415.91,196.58l-41.24,2.33c0-.13-.06-.27-.09-.41l41.15-2.34Z" style="fill:#a6a6a6"></path><path d="M417.69,200.93l-41.26,2.34-.24-.41,41.34-2.34C417.58,200.66,417.64,200.79,417.69,200.93Z" style="fill:#a6a6a6"></path><path d="M419.32,205.29l-41.69,2.37.08-.43,41.47-2.35C419.23,205,419.28,205.15,419.32,205.29Z" style="fill:#a6a6a6"></path><path d="M420.82,209.66l-44.07,2.5.09-.43,43.85-2.48C420.73,209.39,420.78,209.53,420.82,209.66Z" style="fill:#a6a6a6"></path><path d="M422.19,214l-46.31,2.62.09-.42,46.1-2.62C422.11,213.76,422.16,213.9,422.19,214Z" style="fill:#a6a6a6"></path><path d="M423.44,218.42,375,221.17l.09-.43L423.33,218C423.37,218.15,423.4,218.29,423.44,218.42Z" style="fill:#a6a6a6"></path><path d="M392.3,200.33a47.06,47.06,0,0,0-6.83,1.61c-1.1.36-2.18.78-3.26,1.21-.54.22-1.08.42-1.62.62a7.61,7.61,0,0,1-1.76.46c-.05,0-.05.08,0,.08a14.1,14.1,0,0,0,1.71-.15,13.15,13.15,0,0,0,1.61-.42c1.12-.36,2.23-.77,3.35-1.14,2.26-.75,4.52-1.5,6.83-2.08A.1.1,0,0,0,392.3,200.33Z" style="fill:#263238"></path><path d="M398.19,202a50.82,50.82,0,0,0-5.79.12c-1,.07-1.91.21-2.87.36l-1.36.25c-.5.1-1,.27-1.48.36-.05,0-.05.09,0,.08.47-.07,1-.07,1.43-.11l1.44-.14c1-.08,1.92-.16,2.88-.26q2.87-.3,5.75-.5A.08.08,0,0,0,398.19,202Z" style="fill:#263238"></path><path d="M396.46,170c-.15.95-4.12,7.33-8.39,7.46-1.39,0-1.95-7.54-1.95-7.54l-.17-.55-2.36-7.7,8.76-6.62,1.27-.89s.5,2.15,1.11,4.83c0,.13,0,.25.08.39s.08.29.11.43c.09.4.19.81.27,1.22s.14.61.2.94.12.65.19,1A50.54,50.54,0,0,1,396.46,170Z" style="fill:#eb9481"></path><path d="M395.13,160.78a17.73,17.73,0,0,1-9.09,8.86l-.09-.28-2.36-7.71,8.76-6.61,1.26-.89s.51,2.15,1.12,4.83c0,.13.06.25.08.39a3.77,3.77,0,0,1,.1.43C395,160.12,395.07,160.44,395.13,160.78Z" style="fill:#263238"></path><path d="M372.57,149.77c-1.52,14.06,6.73,16.56,9.77,16.88,2.75.29,12.16.94,15.12-12.88s-3.1-19-9.36-20S374.09,135.71,372.57,149.77Z" style="fill:#eb9481"></path><path d="M397.1,154.05c-2.33.18-2.86-4.71-2.86-4.71s-4.73,0-6.28-6.8a10.43,10.43,0,0,0,2.08,5.63s-8.34-.89-11.85-7.88c0,0,1.4,3.56,2.71,4.82a9.77,9.77,0,0,1-5.2-3.82s-1.47,4-2.59,5.14c0,0,.36-14.6,13.89-13,0,0,8.47.57,11.5,7.28S397.1,154.05,397.1,154.05Z" style="fill:#263238"></path><path d="M394,154.09s2.81-4.6,4.87-3.62.15,7.5-2.15,8.52a2.38,2.38,0,0,1-3.27-1.08Z" style="fill:#eb9481"></path><path d="M398.24,152.33s0,0,0,.06a6.06,6.06,0,0,0-2.88,4,1.32,1.32,0,0,1,1.95-.49s0,.1,0,.09a1.48,1.48,0,0,0-1.59.62,6.87,6.87,0,0,0-.69,1.35c-.07.15-.34.09-.29-.08v0C394.55,155.71,396,152.68,398.24,152.33Z" style="fill:#263238"></path><path d="M374.32,147.1c.33,0,.64-.14,1-.22a1.64,1.64,0,0,0,1-.41.51.51,0,0,0,0-.62,1.26,1.26,0,0,0-1.25-.28,1.84,1.84,0,0,0-1.16.67A.55.55,0,0,0,374.32,147.1Z" style="fill:#263238"></path><path d="M383.73,147.82a7.92,7.92,0,0,1-1-.19,1.61,1.61,0,0,1-1-.39.51.51,0,0,1,0-.62,1.25,1.25,0,0,1,1.24-.31,1.83,1.83,0,0,1,1.17.64A.54.54,0,0,1,383.73,147.82Z" style="fill:#263238"></path><path d="M381.74,151.38s.07.05.07.09c0,1,.08,2.1,1,2.43,0,0,0,.06,0,.06C381.68,153.79,381.54,152.3,381.74,151.38Z" style="fill:#263238"></path><path d="M382.62,150.37c1.57-.1,1.66,3,.2,3.14S381.3,150.46,382.62,150.37Z" style="fill:#263238"></path><path d="M383.24,150.52c.28.17.56.48.89.5s.67-.31.91-.63c0,0,0,0,.06,0,0,.61-.19,1.23-.84,1.34s-1-.42-1.19-1C383,150.62,383.13,150.45,383.24,150.52Z" style="fill:#263238"></path><path d="M376.29,151.23s-.08.05-.07.09c.06,1,0,2.1-.9,2.46,0,0,0,.06,0,.05C376.4,153.64,376.51,152.14,376.29,151.23Z" style="fill:#263238"></path><path d="M375.38,150.24c-1.57-.06-1.58,3.09-.13,3.15S376.7,150.3,375.38,150.24Z" style="fill:#263238"></path><path d="M374.72,150.45c-.25.17-.49.47-.79.49s-.6-.32-.82-.65c0,0-.05,0-.05,0,0,.61.18,1.23.76,1.35s.91-.41,1.06-1C374.91,150.55,374.82,150.38,374.72,150.45Z" style="fill:#263238"></path><path d="M382.05,159.06c-.22.25-.43.58-.78.64a2.77,2.77,0,0,1-1.06-.17,0,0,0,0,0,0,.05,1.31,1.31,0,0,0,1.27.44,1,1,0,0,0,.71-.92C382.16,159,382.08,159,382.05,159.06Z" style="fill:#263238"></path><path d="M377.91,155.6s-.17,1.46-.16,2.15c0,.06.16.09.4.1,0,0,0,0,0,0a3.28,3.28,0,0,0,3.16-1.27.07.07,0,0,0-.1-.09,5,5,0,0,1-3,.9c-.05-.19.39-2.49.28-2.5a6.13,6.13,0,0,0-1.55.38c.28-3.05,1-6,1.29-9.08a.09.09,0,0,0-.18,0,50,50,0,0,0-1.81,9.72C376.23,156.26,377.64,155.72,377.91,155.6Z" style="fill:#263238"></path><path d="M378.15,157.59a4,4,0,0,0,1.52,1.36,1.83,1.83,0,0,0,1.09.15c.81-.15.88-.88.78-1.52a4.49,4.49,0,0,0-.28-1A5.2,5.2,0,0,1,378.15,157.59Z" style="fill:#263238"></path><path d="M379.67,159a1.83,1.83,0,0,0,1.09.15c.81-.15.88-.88.78-1.52A1.87,1.87,0,0,0,379.67,159Z" style="fill:#ff9cbd"></path><path d="M403.5,187c-.76,23.62-10.72,52.39-20.11,51.71-9.19-.66-22.14-19.89-24.89-37.1-.45-2.78,19.84-8.5,21-5.7,1.57,3.89,2.34,9.61,2.61,9.85.59.52,8.09-17.57,12.7-25.86C401.2,168.32,403.78,178.1,403.5,187Z" style="fill:#eb9481"></path><path d="M385.13,225.53a21.1,21.1,0,0,0,.37-4,26,26,0,0,0-.13-3.95A43.71,43.71,0,0,0,382,205.55c0-.05-.09,0-.07,0a113.71,113.71,0,0,1,2.78,11.58c.17,1.29.22,2.6.27,3.9,0,.75,0,1.49,0,2.24s-.06,1.48-.05,2.22C385,225.59,385.12,225.61,385.13,225.53Z" style="fill:#263238"></path><path d="M379.5,195.61s-2.3-8.56-4.07-14.08c-1-3.08-3.15-8.21-4.91-10.15-2.63-2.89-15.49-13.3-18.08-10.23-2.34,2.77,2.55,5.57,2.55,5.57s-5.06-3.56-6.54-.1,5.23,6.53,5.23,6.53-5.11-4.16-6.33-.31c-1.07,3.34,6.3,7.67,6.3,7.67s-4.89-4.95-6.31-1.63c-1.58,3.66,8.65,11.55,8.65,11.55a30.15,30.15,0,0,0,3.49,15.84C360,207.17,379.5,195.61,379.5,195.61Z" style="fill:#eb9481"></path><path d="M352,172.08l1.55.8a28.44,28.44,0,0,1,2.95,1.65c.92.61,1.8,1.26,2.67,1.93s1.77,1.53,2.7,2.22c.08.06,0,.16-.08.1a29,29,0,0,0-2.86-1.91c-.95-.61-1.91-1.2-2.86-1.8s-1.83-1.22-2.74-1.82c-.46-.31-.93-.59-1.4-.87a8.7,8.7,0,0,1-1.33-.83s0-.09.05-.08A6.82,6.82,0,0,1,352,172.08Z" style="fill:#263238"></path><path d="M353.92,166a46.55,46.55,0,0,1,5.55,2.95,32,32,0,0,1,4.93,3.9c.05.05,0,.14-.08.1q-2.65-1.69-5.29-3.44c-.86-.57-4.84-3-5.22-3.32C353.71,166.12,353.82,166,353.92,166Z" style="fill:#263238"></path><path d="M350.07,177.74a44.69,44.69,0,0,1,5.16,2.87,39.74,39.74,0,0,1,4.47,4.06c.05.06,0,.15-.08.11-1.58-1.24-3.14-2.5-4.79-3.66-.8-.56-4.13-2.63-4.85-3.23A.09.09,0,0,1,350.07,177.74Z" style="fill:#263238"></path><path d="M386.33,194l16.48,9.26s2.89-15.77,1.67-23.63-5.05-9-9-2.8S386.33,194,386.33,194Z" style="fill:#c7c7c7"></path><path d="M404,194.94l-.06.46-14.35-8.07.19-.37Zm-16.22-4-.19.39,15.7,8.81q0-.21.06-.45Z" style="fill:#a6a6a6"></path><path d="M402.82,198.28c-.89-.92-8.23-5.66-13.84-8.3a.07.07,0,0,0-.07.13c.58.36,12.58,7.89,13.81,8.34C402.82,198.49,402.88,198.34,402.82,198.28Z" style="fill:#263238"></path><path d="M390.85,183.4c0-.05.1,0,.09,0a18.32,18.32,0,0,1-.59,1.91l-.16.43q1.23-2.06,2.51-4.06a.06.06,0,1,1,.1.06c-2.71,4.77-3.69,7.32-6.27,12.16l1.37.91a.1.1,0,1,1-.1.17l-1.64-.83a.21.21,0,0,1-.1-.24,31.24,31.24,0,0,1,3.55-7.19c.15-.51.3-1,.48-1.52A11.87,11.87,0,0,1,390.85,183.4Z" style="fill:#263238"></path><path d="M405.72,189.3c0-.06-.07-.07-.09,0a16.25,16.25,0,0,0-.6,1.91l-.12.44c.1-1.59.18-3.18.24-4.76a.06.06,0,1,0-.12,0c-.47,5.46-1.57,11-2.19,16.43,0,0-.93-.55-1.55-.88-.11-.06-.14.17,0,.25a4.58,4.58,0,0,0,1.75,1.06.22.22,0,0,0,.22-.15,58.42,58.42,0,0,0,1.61-10.8c.16-.5.33-1,.47-1.52A13,13,0,0,0,405.72,189.3Z" style="fill:#263238"></path></g><g id="freepik--Cursor--inject-74"><path d="M229.37,395.76V381.09c0-4,5-3.71,5,0v12.15h.12v-5.16a2.26,2.26,0,1,1,4.49,0v5.16h.12v-4.06c0-3.28,4.57-3.44,4.57.28v5.11h.14v-2.88c0-3.58,4.58-3.71,4.58.11v13.51c0,2.52-1.2,5.46-6.5,5.46h-9.5c-2.44,0-4.25-6.39-5.46-8.87s-3.66-4.75-5.26-7.1,1-4.67,3.53-2.78A32.4,32.4,0,0,1,229.37,395.76Z" style="fill:#fff"></path><path d="M241.87,411.25h-9.5c-2.19,0-3.73-3.83-5-6.92-.34-.85-.66-1.65-.94-2.22a23.18,23.18,0,0,0-3-4.23c-.76-.92-1.54-1.86-2.19-2.81a2.65,2.65,0,0,1,.18-3.51,3,3,0,0,1,4,.08,34.48,34.48,0,0,1,3.42,2.94V381.09a3.52,3.52,0,0,1,.89-2.5,2.71,2.71,0,0,1,2-.86,3.14,3.14,0,0,1,3,3.36v4.77a2.69,2.69,0,0,1,4.49,1.26,2.69,2.69,0,0,1,4-.08,3.39,3.39,0,0,1,.85,2.32l0,0a2.68,2.68,0,0,1,1.93-.84c1.33,0,2.77,1,2.77,3.31v13.51C248.86,407.53,248,411.25,241.87,411.25Zm-18.58-19.44a1.72,1.72,0,0,0-1.19.45,1.66,1.66,0,0,0,0,2.27c.62.91,1.39,1.83,2.13,2.73a23.39,23.39,0,0,1,3.16,4.43c.29.6.62,1.42,1,2.29,1,2.51,2.52,6.31,4.06,6.31h9.5c5,0,6-2.71,6-5V391.8c0-1.62-.9-2.35-1.8-2.35s-1.82.7-1.82,2.24v3.36h-1.1v-5.59a2.45,2.45,0,0,0-.59-1.75,1.68,1.68,0,0,0-1.24-.53,1.81,1.81,0,0,0-1.78,2v4.54h-1.08v-5.64a1.8,1.8,0,0,0-1.76-2,1.83,1.83,0,0,0-1.77,2v5.64h-1.08V381.09a2.18,2.18,0,0,0-2.08-2.4,1.81,1.81,0,0,0-1.32.56,2.64,2.64,0,0,0-.62,1.84V397l-.84-.92a30.79,30.79,0,0,0-4.12-3.68A2.64,2.64,0,0,0,223.29,391.81Z" style="fill:#263238"></path><path d="M233.74,376.34a5.58,5.58,0,0,1,1.45-3.49,4.83,4.83,0,0,1-.42,1.87A5,5,0,0,1,233.74,376.34Z" style="fill:#263238"></path><path d="M230.21,376.34a5,5,0,0,1-1-1.62,5.07,5.07,0,0,1-.42-1.88,5.44,5.44,0,0,1,1.45,3.5Z" style="fill:#263238"></path><path d="M227.72,378.83a5.44,5.44,0,0,1-3.5-1.45,5.11,5.11,0,0,1,1.88.42A5.22,5.22,0,0,1,227.72,378.83Z" style="fill:#263238"></path><path d="M227.71,382.36a5.44,5.44,0,0,1-3.49,1.45,4.84,4.84,0,0,1,1.62-1A5,5,0,0,1,227.71,382.36Z" style="fill:#263238"></path><path d="M236.23,382.37a5.1,5.1,0,0,1,1.88.41,4.87,4.87,0,0,1,1.62,1,5.07,5.07,0,0,1-1.88-.42A5,5,0,0,1,236.23,382.37Z" style="fill:#263238"></path><path d="M236.23,378.84a4.84,4.84,0,0,1,1.62-1,4.92,4.92,0,0,1,1.88-.42,5.44,5.44,0,0,1-3.5,1.45Z" style="fill:#263238"></path></g><g id="freepik--speech-bubble--inject-74"><path d="M422.11,98.46a21.71,21.71,0,0,1-36.28,13.74L375,113.79l5.44-9.39a21.48,21.48,0,0,1-1.49-10.46,21.72,21.72,0,1,1,43.2,4.52Z" style="fill:#fff"></path><path d="M422.11,98.46a21.82,21.82,0,0,1-4.38,11,23.56,23.56,0,0,1-2,2.27,26.65,26.65,0,0,1-2.29,1.94A22.14,22.14,0,0,1,402.38,118a23.39,23.39,0,0,1-3,.06,19,19,0,0,1-3-.32,22,22,0,0,1-10.75-5.3l.26.08L375,114.17l-.79.12.4-.69,5.4-9.41,0,.37a22,22,0,0,1,1.33-19.36A22.35,22.35,0,0,1,388.15,78a21.93,21.93,0,0,1,34,20.5Zm0,0a21.56,21.56,0,0,0-15-22.78,21.65,21.65,0,0,0-18.63,2.82,22.38,22.38,0,0,0-6.5,7.09,21.44,21.44,0,0,0-1.22,18.65l.08.19-.11.18L375.29,114l-.39-.58,10.88-1.52.15,0,.11.1a21.4,21.4,0,0,0,10.4,5.36,19.34,19.34,0,0,0,2.94.35,21.17,21.17,0,0,0,3,0,21.44,21.44,0,0,0,5.8-1.28,20.26,20.26,0,0,0,5.24-2.82,26.15,26.15,0,0,0,2.29-1.92,23.21,23.21,0,0,0,2-2.24A21.77,21.77,0,0,0,422.11,98.46Z" style="fill:#263238"></path><path d="M409.72,100.3a28.4,28.4,0,0,1-9.12,7.91,28.29,28.29,0,0,1-9.12-7.91C388.26,96.05,388.42,89.39,393,88,398.1,86.36,400.6,94,400.6,94s2.53-7.7,7.58-6.06C412.76,89.44,412.93,96.05,409.72,100.3Z" style="fill:#03A9F4"></path></g></svg>
